<?xml version="1.0" encoding="UTF-8" standalone="no"?>
<!DOCTYPE svg PUBLIC "-//W3C//DTD SVG 1.1//EN" "http://www.w3.org/Graphics/SVG/1.1/DTD/svg11.dtd">
<svg xmlns="http://www.w3.org/2000/svg" xmlns:xlink="http://www.w3.org/1999/xlink" version="1.1" width="976.827pt" height="521.204pt" viewBox="0 0 976.827 521.204">
<g enable-background="new">
<g>
<g>
<clipPath id="cp0">
<path transform="matrix(1,0,0,-1,-269.231,645.227)" d="M 0 0 L 1382.4 0 L 1382.4 731.52 L 0 731.52 Z "/>
</clipPath>
<g clip-path="url(#cp0)">
<path transform="matrix(1,0,0,-1,-269.231,645.227)" d="M 0 0 L 1382.4 0 L 1382.4 731.52 L 0 731.52 Z " fill="#ffffff"/>
<path transform="matrix(1,0,0,-1,-269.231,645.227)" d="M 276.48 417.6314 L 1244.16 417.6314 L 1244.16 643.7376 L 276.48 643.7376 Z " fill="#ffffff"/>
<clipPath id="cp1">
<path transform="matrix(1,0,0,-1,-269.231,645.227)" d="M 276.48 417.6314 L 1244.16 417.6314 L 1244.16 643.7376 L 276.48 643.7376 Z "/>
</clipPath>
<g clip-path="url(#cp1)">
<path transform="matrix(1,0,0,-1,-269.231,645.227)" d="M 276.48 427.90898 L 1198.08 427.90898 L 1198.08 448.99113 L 276.48 448.99113 Z " fill="#94c4df"/>
</g>
<clipPath id="cp2">
<path transform="matrix(1,0,0,-1,-269.231,645.227)" d="M 276.48 417.6314 L 1244.16 417.6314 L 1244.16 643.7376 L 276.48 643.7376 Z "/>
</clipPath>
<g clip-path="url(#cp2)">
<path transform="matrix(1,0,0,-1,-269.231,645.227)" d="M 276.50688 454.2617 L 308.32789 454.2617 L 308.32789 475.34385 L 276.50688 475.34385 Z " fill="#4a98c9"/>
</g>
<clipPath id="cp3">
<path transform="matrix(1,0,0,-1,-269.231,645.227)" d="M 276.48 417.6314 L 1244.16 417.6314 L 1244.16 643.7376 L 276.48 643.7376 Z "/>
</clipPath>
<g clip-path="url(#cp3)">
<path transform="matrix(1,0,0,-1,-269.231,645.227)" d="M 308.38166 480.61439 L 439.1327 480.61439 L 439.1327 501.69654 L 308.38166 501.69654 Z " fill="#4a98c9"/>
</g>
<clipPath id="cp4">
<path transform="matrix(1,0,0,-1,-269.231,645.227)" d="M 276.48 417.6314 L 1244.16 417.6314 L 1244.16 643.7376 L 276.48 643.7376 Z "/>
</clipPath>
<g clip-path="url(#cp4)">
<path transform="matrix(1,0,0,-1,-269.231,645.227)" d="M 439.15956 506.96708 L 537.41769 506.96708 L 537.41769 528.04928 L 439.15956 528.04928 Z " fill="#4a98c9"/>
</g>
<clipPath id="cp5">
<path transform="matrix(1,0,0,-1,-269.231,645.227)" d="M 276.48 417.6314 L 1244.16 417.6314 L 1244.16 643.7376 L 276.48 643.7376 Z "/>
</clipPath>
<g clip-path="url(#cp5)">
<path transform="matrix(1,0,0,-1,-269.231,645.227)" d="M 537.47146 533.31979 L 1092.2698 533.31979 L 1092.2698 554.4019 L 537.47146 554.4019 Z " fill="#4a98c9"/>
</g>
<clipPath id="cp6">
<path transform="matrix(1,0,0,-1,-269.231,645.227)" d="M 276.48 417.6314 L 1244.16 417.6314 L 1244.16 643.7376 L 276.48 643.7376 Z "/>
</clipPath>
<g clip-path="url(#cp6)">
<path transform="matrix(1,0,0,-1,-269.231,645.227)" d="M 1092.3235 559.6725 L 1114.5767 559.6725 L 1114.5767 580.75466 L 1092.3235 580.75466 Z " fill="#4a98c9"/>
</g>
<clipPath id="cp7">
<path transform="matrix(1,0,0,-1,-269.231,645.227)" d="M 276.48 417.6314 L 1244.16 417.6314 L 1244.16 643.7376 L 276.48 643.7376 Z "/>
</clipPath>
<g clip-path="url(#cp7)">
<path transform="matrix(1,0,0,-1,-269.231,645.227)" d="M 1114.6305 586.0252 L 1197.9187 586.0252 L 1197.9187 607.10739 L 1114.6305 607.10739 Z " fill="#4a98c9"/>
</g>
<clipPath id="cp8">
<path transform="matrix(1,0,0,-1,-269.231,645.227)" d="M 276.48 417.6314 L 1244.16 417.6314 L 1244.16 643.7376 L 276.48 643.7376 Z "/>
</clipPath>
<g clip-path="url(#cp8)">
<path transform="matrix(1,0,0,-1,-269.231,645.227)" d="M 1197.9725 612.37789 L 1198.08 612.37789 L 1198.08 633.46 L 1197.9725 633.46 Z " fill="#4a98c9"/>
</g>
<clipPath id="cp9">
<path transform="matrix(1,0,0,-1,-269.231,645.227)" d="M 276.48 417.6314 L 1244.16 417.6314 L 1244.16 643.7376 L 276.48 643.7376 Z "/>
</clipPath>
<g clip-path="url(#cp9)">
<path transform="matrix(1,0,0,-1,-269.231,645.227)" stroke-width=".8" stroke-linecap="butt" stroke-dasharray=".8,1.32" stroke-linejoin="round" fill="none" stroke="#bebebe" d="M 276.48 417.6314 L 276.48 643.7376 "/>
</g>
<path transform="matrix(1,0,0,-1,-269.231,645.227)" d="M 276.48 417.6314 L 276.48 414.1314 "/>
<path transform="matrix(1,0,0,-1,-269.231,645.227)" stroke-width=".8" stroke-linecap="butt" stroke-linejoin="round" fill="none" stroke="#000000" d="M 276.48 417.6314 L 276.48 414.1314 "/>
<text xml:space="preserve" transform="matrix(1 0 -0 1 -269.231 645.227)" font-size="5" font-family="DejaVuSans"><tspan y="-406.83454" x="274.88627">0</tspan></text>
<clipPath id="cp10">
<path transform="matrix(1,0,0,-1,-269.231,645.227)" d="M 276.48 417.6314 L 1244.16 417.6314 L 1244.16 643.7376 L 276.48 643.7376 Z "/>
</clipPath>
<g clip-path="url(#cp10)">
<path transform="matrix(1,0,0,-1,-269.231,645.227)" stroke-width=".8" stroke-linecap="butt" stroke-dasharray=".8,1.32" stroke-linejoin="round" fill="none" stroke="#bebebe" d="M 410.85929 417.6314 L 410.85929 643.7376 "/>
</g>
<path transform="matrix(1,0,0,-1,-269.231,645.227)" d="M 410.85929 417.6314 L 410.85929 414.1314 "/>
<path transform="matrix(1,0,0,-1,-269.231,645.227)" stroke-width=".8" stroke-linecap="butt" stroke-linejoin="round" fill="none" stroke="#000000" d="M 410.85929 417.6314 L 410.85929 414.1314 "/>
<text xml:space="preserve" transform="matrix(1 0 -0 1 -269.231 645.227)" font-size="5" font-family="DejaVuSans"><tspan y="-406.83454" x="409.26554">5</tspan></text>
<clipPath id="cp11">
<path transform="matrix(1,0,0,-1,-269.231,645.227)" d="M 276.48 417.6314 L 1244.16 417.6314 L 1244.16 643.7376 L 276.48 643.7376 Z "/>
</clipPath>
<g clip-path="url(#cp11)">
<path transform="matrix(1,0,0,-1,-269.231,645.227)" stroke-width=".8" stroke-linecap="butt" stroke-dasharray=".8,1.32" stroke-linejoin="round" fill="none" stroke="#bebebe" d="M 545.2386 417.6314 L 545.2386 643.7376 "/>
</g>
<path transform="matrix(1,0,0,-1,-269.231,645.227)" d="M 545.2386 417.6314 L 545.2386 414.1314 "/>
<path transform="matrix(1,0,0,-1,-269.231,645.227)" stroke-width=".8" stroke-linecap="butt" stroke-linejoin="round" fill="none" stroke="#000000" d="M 545.2386 417.6314 L 545.2386 414.1314 "/>
<text xml:space="preserve" transform="matrix(1 0 -0 1 -269.231 645.227)" font-size="5" font-family="DejaVuSans"><tspan y="-406.83454" x="542.0511 545.2311">10</tspan></text>
<clipPath id="cp12">
<path transform="matrix(1,0,0,-1,-269.231,645.227)" d="M 276.48 417.6314 L 1244.16 417.6314 L 1244.16 643.7376 L 276.48 643.7376 Z "/>
</clipPath>
<g clip-path="url(#cp12)">
<path transform="matrix(1,0,0,-1,-269.231,645.227)" stroke-width=".8" stroke-linecap="butt" stroke-dasharray=".8,1.32" stroke-linejoin="round" fill="none" stroke="#bebebe" d="M 679.61788 417.6314 L 679.61788 643.7376 "/>
</g>
<path transform="matrix(1,0,0,-1,-269.231,645.227)" d="M 679.61788 417.6314 L 679.61788 414.1314 "/>
<path transform="matrix(1,0,0,-1,-269.231,645.227)" stroke-width=".8" stroke-linecap="butt" stroke-linejoin="round" fill="none" stroke="#000000" d="M 679.61788 417.6314 L 679.61788 414.1314 "/>
<text xml:space="preserve" transform="matrix(1 0 -0 1 -269.231 645.227)" font-size="5" font-family="DejaVuSans"><tspan y="-406.83454" x="676.43038 679.61038">15</tspan></text>
<clipPath id="cp13">
<path transform="matrix(1,0,0,-1,-269.231,645.227)" d="M 276.48 417.6314 L 1244.16 417.6314 L 1244.16 643.7376 L 276.48 643.7376 Z "/>
</clipPath>
<g clip-path="url(#cp13)">
<path transform="matrix(1,0,0,-1,-269.231,645.227)" stroke-width=".8" stroke-linecap="butt" stroke-dasharray=".8,1.32" stroke-linejoin="round" fill="none" stroke="#bebebe" d="M 813.99716 417.6314 L 813.99716 643.7376 "/>
</g>
<path transform="matrix(1,0,0,-1,-269.231,645.227)" d="M 813.99716 417.6314 L 813.99716 414.1314 "/>
<path transform="matrix(1,0,0,-1,-269.231,645.227)" stroke-width=".8" stroke-linecap="butt" stroke-linejoin="round" fill="none" stroke="#000000" d="M 813.99716 417.6314 L 813.99716 414.1314 "/>
<text xml:space="preserve" transform="matrix(1 0 -0 1 -269.231 645.227)" font-size="5" font-family="DejaVuSans"><tspan y="-406.83454" x="810.80966 813.9896">20</tspan></text>
<clipPath id="cp14">
<path transform="matrix(1,0,0,-1,-269.231,645.227)" d="M 276.48 417.6314 L 1244.16 417.6314 L 1244.16 643.7376 L 276.48 643.7376 Z "/>
</clipPath>
<g clip-path="url(#cp14)">
<path transform="matrix(1,0,0,-1,-269.231,645.227)" stroke-width=".8" stroke-linecap="butt" stroke-dasharray=".8,1.32" stroke-linejoin="round" fill="none" stroke="#bebebe" d="M 948.3764 417.6314 L 948.3764 643.7376 "/>
</g>
<path transform="matrix(1,0,0,-1,-269.231,645.227)" d="M 948.3764 417.6314 L 948.3764 414.1314 "/>
<path transform="matrix(1,0,0,-1,-269.231,645.227)" stroke-width=".8" stroke-linecap="butt" stroke-linejoin="round" fill="none" stroke="#000000" d="M 948.3764 417.6314 L 948.3764 414.1314 "/>
<text xml:space="preserve" transform="matrix(1 0 -0 1 -269.231 645.227)" font-size="5" font-family="DejaVuSans"><tspan y="-406.83454" x="945.1889 948.3689">25</tspan></text>
<clipPath id="cp15">
<path transform="matrix(1,0,0,-1,-269.231,645.227)" d="M 276.48 417.6314 L 1244.16 417.6314 L 1244.16 643.7376 L 276.48 643.7376 Z "/>
</clipPath>
<g clip-path="url(#cp15)">
<path transform="matrix(1,0,0,-1,-269.231,645.227)" stroke-width=".8" stroke-linecap="butt" stroke-dasharray=".8,1.32" stroke-linejoin="round" fill="none" stroke="#bebebe" d="M 1082.7557 417.6314 L 1082.7557 643.7376 "/>
</g>
<path transform="matrix(1,0,0,-1,-269.231,645.227)" d="M 1082.7557 417.6314 L 1082.7557 414.1314 "/>
<path transform="matrix(1,0,0,-1,-269.231,645.227)" stroke-width=".8" stroke-linecap="butt" stroke-linejoin="round" fill="none" stroke="#000000" d="M 1082.7557 417.6314 L 1082.7557 414.1314 "/>
<text xml:space="preserve" transform="matrix(1 0 -0 1 -269.231 645.227)" font-size="5" font-family="DejaVuSans"><tspan y="-406.83454" x="1079.5682 1082.7483">30</tspan></text>
<clipPath id="cp16">
<path transform="matrix(1,0,0,-1,-269.231,645.227)" d="M 276.48 417.6314 L 1244.16 417.6314 L 1244.16 643.7376 L 276.48 643.7376 Z "/>
</clipPath>
<g clip-path="url(#cp16)">
<path transform="matrix(1,0,0,-1,-269.231,645.227)" stroke-width=".8" stroke-linecap="butt" stroke-dasharray=".8,1.32" stroke-linejoin="round" fill="none" stroke="#bebebe" d="M 1217.135 417.6314 L 1217.135 643.7376 "/>
</g>
<path transform="matrix(1,0,0,-1,-269.231,645.227)" d="M 1217.135 417.6314 L 1217.135 414.1314 "/>
<path transform="matrix(1,0,0,-1,-269.231,645.227)" stroke-width=".8" stroke-linecap="butt" stroke-linejoin="round" fill="none" stroke="#000000" d="M 1217.135 417.6314 L 1217.135 414.1314 "/>
<text xml:space="preserve" transform="matrix(1 0 -0 1 -269.231 645.227)" font-size="5" font-family="DejaVuSans"><tspan y="-406.83454" x="1213.9475 1217.1276">35</tspan></text>
<text xml:space="preserve" transform="matrix(1 0 -0 1 -269.231 645.227)" font-size="10" font-family="DejaVuSans"><tspan y="-394.1939" x="723.78878 730.13876 735.63876 741.97879 748.1288 754.47879 760.8188 763.5988 769.74887 772.92886 776.82888 786.56887 792.9188">Schedule (mS)</tspan></text>
<clipPath id="cp17">
<path transform="matrix(1,0,0,-1,-269.231,645.227)" d="M 276.48 417.6314 L 1244.16 417.6314 L 1244.16 643.7376 L 276.48 643.7376 Z "/>
</clipPath>
<g clip-path="url(#cp17)">
<path transform="matrix(1,0,0,-1,-269.231,645.227)" stroke-width=".8" stroke-linecap="butt" stroke-dasharray=".8,1.32" stroke-linejoin="round" fill="none" stroke="#bebebe" d="M 276.48 438.45005 L 1244.16 438.45005 "/>
</g>
<path transform="matrix(1,0,0,-1,-269.231,645.227)" d="M 276.48 438.45005 L 272.98 438.45005 "/>
<path transform="matrix(1,0,0,-1,-269.231,645.227)" stroke-width=".8" stroke-linecap="butt" stroke-linejoin="round" fill="none" stroke="#000000" d="M 276.48 438.45005 L 272.98 438.45005 "/>
<text xml:space="preserve" transform="matrix(1 0 -0 1 -269.231 645.227)" font-size="5" font-family="DejaVuSans"><tspan y="-436.5516" x="236.57375 239.74875 242.92375 246.09876 248.59876 252.33876 255.41376 257.37376 261.46376 264.52375 266.57875">SbS_Network</tspan></text>
<clipPath id="cp18">
<path transform="matrix(1,0,0,-1,-269.231,645.227)" d="M 276.48 417.6314 L 1244.16 417.6314 L 1244.16 643.7376 L 276.48 643.7376 Z "/>
</clipPath>
<g clip-path="url(#cp18)">
<path transform="matrix(1,0,0,-1,-269.231,645.227)" stroke-width=".8" stroke-linecap="butt" stroke-dasharray=".8,1.32" stroke-linejoin="round" fill="none" stroke="#bebebe" d="M 276.48 464.80278 L 1244.16 464.80278 "/>
</g>
<path transform="matrix(1,0,0,-1,-269.231,645.227)" d="M 276.48 464.80278 L 272.98 464.80278 "/>
<path transform="matrix(1,0,0,-1,-269.231,645.227)" stroke-width=".8" stroke-linecap="butt" stroke-linejoin="round" fill="none" stroke="#000000" d="M 276.48 464.80278 L 272.98 464.80278 "/>
<text xml:space="preserve" transform="matrix(1 0 -0 1 -269.231 645.227)" font-size="5" font-family="DejaVuSans"><tspan y="-462.90434" x="230.07375 233.83374 237.25875 239.75875 241.23375 244.97376 247.47376 250.64876 253.70876 255.46875 257.42875 261.51875 264.58375 266.63874">HX_IN_Software</tspan></text>
<clipPath id="cp19">
<path transform="matrix(1,0,0,-1,-269.231,645.227)" d="M 276.48 417.6314 L 1244.16 417.6314 L 1244.16 643.7376 L 276.48 643.7376 Z "/>
</clipPath>
<g clip-path="url(#cp19)">
<path transform="matrix(1,0,0,-1,-269.231,645.227)" stroke-width=".8" stroke-linecap="butt" stroke-dasharray=".8,1.32" stroke-linejoin="round" fill="none" stroke="#bebebe" d="M 276.48 491.15547 L 1244.16 491.15547 "/>
</g>
<path transform="matrix(1,0,0,-1,-269.231,645.227)" d="M 276.48 491.15547 L 272.98 491.15547 "/>
<path transform="matrix(1,0,0,-1,-269.231,645.227)" stroke-width=".8" stroke-linecap="butt" stroke-linejoin="round" fill="none" stroke="#000000" d="M 276.48 491.15547 L 272.98 491.15547 "/>
<text xml:space="preserve" transform="matrix(1 0 -0 1 -269.231 645.227)" font-size="5" font-family="DejaVuSans"><tspan y="-489.25703" x="220.9175 224.67749 227.85749 230.35749 233.84749 237.78249 241.52249 244.94249 247.44249 250.6175 253.67749 255.43749 257.3975 261.4875 264.5525 266.60749">H1_CONV_Software</tspan></text>
<clipPath id="cp20">
<path transform="matrix(1,0,0,-1,-269.231,645.227)" d="M 276.48 417.6314 L 1244.16 417.6314 L 1244.16 643.7376 L 276.48 643.7376 Z "/>
</clipPath>
<g clip-path="url(#cp20)">
<path transform="matrix(1,0,0,-1,-269.231,645.227)" stroke-width=".8" stroke-linecap="butt" stroke-dasharray=".8,1.32" stroke-linejoin="round" fill="none" stroke="#bebebe" d="M 276.48 517.5082 L 1244.16 517.5082 "/>
</g>
<path transform="matrix(1,0,0,-1,-269.231,645.227)" d="M 276.48 517.5082 L 272.98 517.5082 "/>
<path transform="matrix(1,0,0,-1,-269.231,645.227)" stroke-width=".8" stroke-linecap="butt" stroke-linejoin="round" fill="none" stroke="#000000" d="M 276.48 517.5082 L 272.98 517.5082 "/>
<text xml:space="preserve" transform="matrix(1 0 -0 1 -269.231 645.227)" font-size="5" font-family="DejaVuSans"><tspan y="-515.60977" x="221.83937 225.59937 228.77936 231.27936 234.29436 238.22936 242.16436 244.94936 247.44936 250.62436 253.68436 255.44435 257.40437 261.49436 264.55937 266.61436">H2_POOL_Software</tspan></text>
<clipPath id="cp21">
<path transform="matrix(1,0,0,-1,-269.231,645.227)" d="M 276.48 417.6314 L 1244.16 417.6314 L 1244.16 643.7376 L 276.48 643.7376 Z "/>
</clipPath>
<g clip-path="url(#cp21)">
<path transform="matrix(1,0,0,-1,-269.231,645.227)" stroke-width=".8" stroke-linecap="butt" stroke-dasharray=".8,1.32" stroke-linejoin="round" fill="none" stroke="#bebebe" d="M 276.48 543.86087 L 1244.16 543.86087 "/>
</g>
<path transform="matrix(1,0,0,-1,-269.231,645.227)" d="M 276.48 543.86087 L 272.98 543.86087 "/>
<path transform="matrix(1,0,0,-1,-269.231,645.227)" stroke-width=".8" stroke-linecap="butt" stroke-linejoin="round" fill="none" stroke="#000000" d="M 276.48 543.86087 L 272.98 543.86087 "/>
<text xml:space="preserve" transform="matrix(1 0 -0 1 -269.231 645.227)" font-size="5" font-family="DejaVuSans"><tspan y="-541.9624" x="220.9175 224.67749 227.85749 230.35749 233.84749 237.78249 241.52249 244.94249 247.44249 250.6175 253.67749 255.43749 257.3975 261.4875 264.5525 266.60749">H3_CONV_Software</tspan></text>
<clipPath id="cp22">
<path transform="matrix(1,0,0,-1,-269.231,645.227)" d="M 276.48 417.6314 L 1244.16 417.6314 L 1244.16 643.7376 L 276.48 643.7376 Z "/>
</clipPath>
<g clip-path="url(#cp22)">
<path transform="matrix(1,0,0,-1,-269.231,645.227)" stroke-width=".8" stroke-linecap="butt" stroke-dasharray=".8,1.32" stroke-linejoin="round" fill="none" stroke="#bebebe" d="M 276.48 570.21359 L 1244.16 570.21359 "/>
</g>
<path transform="matrix(1,0,0,-1,-269.231,645.227)" d="M 276.48 570.21359 L 272.98 570.21359 "/>
<path transform="matrix(1,0,0,-1,-269.231,645.227)" stroke-width=".8" stroke-linecap="butt" stroke-linejoin="round" fill="none" stroke="#000000" d="M 276.48 570.21359 L 272.98 570.21359 "/>
<text xml:space="preserve" transform="matrix(1 0 -0 1 -269.231 645.227)" font-size="5" font-family="DejaVuSans"><tspan y="-568.3151" x="221.83937 225.59937 228.77936 231.27936 234.29436 238.22936 242.16436 244.94936 247.44936 250.62436 253.68436 255.44435 257.40437 261.49436 264.55937 266.61436">H4_POOL_Software</tspan></text>
<clipPath id="cp23">
<path transform="matrix(1,0,0,-1,-269.231,645.227)" d="M 276.48 417.6314 L 1244.16 417.6314 L 1244.16 643.7376 L 276.48 643.7376 Z "/>
</clipPath>
<g clip-path="url(#cp23)">
<path transform="matrix(1,0,0,-1,-269.231,645.227)" stroke-width=".8" stroke-linecap="butt" stroke-dasharray=".8,1.32" stroke-linejoin="round" fill="none" stroke="#bebebe" d="M 276.48 596.5663 L 1244.16 596.5663 "/>
</g>
<path transform="matrix(1,0,0,-1,-269.231,645.227)" d="M 276.48 596.5663 L 272.98 596.5663 "/>
<path transform="matrix(1,0,0,-1,-269.231,645.227)" stroke-width=".8" stroke-linecap="butt" stroke-linejoin="round" fill="none" stroke="#000000" d="M 276.48 596.5663 L 272.98 596.5663 "/>
<text xml:space="preserve" transform="matrix(1 0 -0 1 -269.231 645.227)" font-size="5" font-family="DejaVuSans"><tspan y="-594.66787" x="218.44875 222.20874 225.38874 227.88874 231.73874 234.89875 238.63875 241.81375 244.97376 247.47376 250.64876 253.70876 255.46875 257.42875 261.51875 264.58375 266.63874">H5_DENSE_Software</tspan></text>
<clipPath id="cp24">
<path transform="matrix(1,0,0,-1,-269.231,645.227)" d="M 276.48 417.6314 L 1244.16 417.6314 L 1244.16 643.7376 L 276.48 643.7376 Z "/>
</clipPath>
<g clip-path="url(#cp24)">
<path transform="matrix(1,0,0,-1,-269.231,645.227)" stroke-width=".8" stroke-linecap="butt" stroke-dasharray=".8,1.32" stroke-linejoin="round" fill="none" stroke="#bebebe" d="M 276.48 622.91897 L 1244.16 622.91897 "/>
</g>
<path transform="matrix(1,0,0,-1,-269.231,645.227)" d="M 276.48 622.91897 L 272.98 622.91897 "/>
<path transform="matrix(1,0,0,-1,-269.231,645.227)" stroke-width=".8" stroke-linecap="butt" stroke-linejoin="round" fill="none" stroke="#000000" d="M 276.48 622.91897 L 272.98 622.91897 "/>
<text xml:space="preserve" transform="matrix(1 0 -0 1 -269.231 645.227)" font-size="5" font-family="DejaVuSans"><tspan y="-621.0205" x="224.98 228.73999 231.79499 234.29499 238.22998 241.88999 244.94498 247.44498 250.61998 253.67998 255.43997 257.39997 261.48997 264.55497 266.60997">HY_OUT_Software</tspan></text>
<text xml:space="preserve" transform="matrix(0 -1 1 0 -269.231 645.227)" font-size="10" font-family="DejaVuSans"><tspan y="212.37062" x="519.872 525.982 532.112 537.322">Task</tspan></text>
<path transform="matrix(1,0,0,-1,-269.231,645.227)" stroke-width=".8" stroke-linecap="square" stroke-miterlimit="10" stroke-linejoin="miter" fill="none" stroke="#000000" d="M 276.48 417.6314 L 276.48 643.7376 "/>
<path transform="matrix(1,0,0,-1,-269.231,645.227)" stroke-width=".8" stroke-linecap="square" stroke-miterlimit="10" stroke-linejoin="miter" fill="none" stroke="#000000" d="M 1244.16 417.6314 L 1244.16 643.7376 "/>
<path transform="matrix(1,0,0,-1,-269.231,645.227)" stroke-width=".8" stroke-linecap="square" stroke-miterlimit="10" stroke-linejoin="miter" fill="none" stroke="#000000" d="M 276.48 417.6314 L 1244.16 417.6314 "/>
<path transform="matrix(1,0,0,-1,-269.231,645.227)" stroke-width=".8" stroke-linecap="square" stroke-miterlimit="10" stroke-linejoin="miter" fill="none" stroke="#000000" d="M 276.48 643.7376 L 1244.16 643.7376 "/>
<path transform="matrix(1,0,0,-1,-269.231,645.227)" d="M 276.48 146.304 L 1244.16 146.304 L 1244.16 372.4102 L 276.48 372.4102 Z " fill="#ffffff"/>
<path transform="matrix(1,0,0,-1,-269.231,645.227)" d="M 276.48 123.87283 L 414.72 123.87283 L 414.72 146.304 L 276.48 146.304 Z " fill="#ffffff"/>
<path transform="matrix(1,0,0,-1,-269.231,645.227)" stroke-width="1" stroke-linecap="butt" stroke-miterlimit="10" stroke-linejoin="miter" fill="none" stroke="#000000" d="M 276.48 123.87283 L 414.72 123.87283 L 414.72 146.304 L 276.48 146.304 Z "/>
<text xml:space="preserve" transform="matrix(1 0 -0 1 -269.231 645.227)" font-size="7" font-family="DejaVuSans"><tspan y="-133.36185" x="335.17033 340.43434 345.22935 348.72935 350.79435">HX_IN</tspan></text>
<path transform="matrix(1,0,0,-1,-269.231,645.227)" d="M 414.72 123.87283 L 552.96 123.87283 L 552.96 146.304 L 414.72 146.304 Z " fill="#ffffff"/>
<path transform="matrix(1,0,0,-1,-269.231,645.227)" stroke-width="1" stroke-linecap="butt" stroke-miterlimit="10" stroke-linejoin="miter" fill="none" stroke="#000000" d="M 414.72 123.87283 L 552.96 123.87283 L 552.96 146.304 L 414.72 146.304 Z "/>
<text xml:space="preserve" transform="matrix(1 0 -0 1 -269.231 645.227)" font-size="7" font-family="DejaVuSans"><tspan y="-133.31497" x="467.01188 472.27589 476.72789 480.22789 485.11387 490.62287 495.85887">H1_CONV</tspan></text>
<path transform="matrix(1,0,0,-1,-269.231,645.227)" d="M 552.96 123.87283 L 691.2 123.87283 L 691.2 146.304 L 552.96 146.304 Z " fill="#ffffff"/>
<path transform="matrix(1,0,0,-1,-269.231,645.227)" stroke-width="1" stroke-linecap="butt" stroke-miterlimit="10" stroke-linejoin="miter" fill="none" stroke="#000000" d="M 552.96 123.87283 L 691.2 123.87283 L 691.2 146.304 L 552.96 146.304 Z "/>
<text xml:space="preserve" transform="matrix(1 0 -0 1 -269.231 645.227)" font-size="7" font-family="DejaVuSans"><tspan y="-133.31497" x="605.8925 611.1565 615.6085 619.1085 623.3295 628.8385 634.3475">H2_POOL</tspan></text>
<path transform="matrix(1,0,0,-1,-269.231,645.227)" d="M 691.2 123.87283 L 829.44 123.87283 L 829.44 146.304 L 691.2 146.304 Z " fill="#ffffff"/>
<path transform="matrix(1,0,0,-1,-269.231,645.227)" stroke-width="1" stroke-linecap="butt" stroke-miterlimit="10" stroke-linejoin="miter" fill="none" stroke="#000000" d="M 691.2 123.87283 L 829.44 123.87283 L 829.44 146.304 L 691.2 146.304 Z "/>
<text xml:space="preserve" transform="matrix(1 0 -0 1 -269.231 645.227)" font-size="7" font-family="DejaVuSans"><tspan y="-133.31497" x="743.4919 748.75588 753.2079 756.7079 761.5939 767.10287 772.33889">H3_CONV</tspan></text>
<path transform="matrix(1,0,0,-1,-269.231,645.227)" d="M 829.44 123.87283 L 967.68 123.87283 L 967.68 146.304 L 829.44 146.304 Z " fill="#ffffff"/>
<path transform="matrix(1,0,0,-1,-269.231,645.227)" stroke-width="1" stroke-linecap="butt" stroke-miterlimit="10" stroke-linejoin="miter" fill="none" stroke="#000000" d="M 829.44 123.87283 L 967.68 123.87283 L 967.68 146.304 L 829.44 146.304 Z "/>
<text xml:space="preserve" transform="matrix(1 0 -0 1 -269.231 645.227)" font-size="7" font-family="DejaVuSans"><tspan y="-133.31497" x="882.3725 887.6365 892.0885 895.5885 899.8095 905.3185 910.82748">H4_POOL</tspan></text>
<path transform="matrix(1,0,0,-1,-269.231,645.227)" d="M 967.68 123.87283 L 1105.92 123.87283 L 1105.92 146.304 L 967.68 146.304 Z " fill="#ffffff"/>
<path transform="matrix(1,0,0,-1,-269.231,645.227)" stroke-width="1" stroke-linecap="butt" stroke-miterlimit="10" stroke-linejoin="miter" fill="none" stroke="#000000" d="M 967.68 123.87283 L 1105.92 123.87283 L 1105.92 146.304 L 967.68 146.304 Z "/>
<text xml:space="preserve" transform="matrix(1 0 -0 1 -269.231 645.227)" font-size="7" font-family="DejaVuSans"><tspan y="-133.31497" x="1018.2375 1023.50149 1027.9535 1031.4535 1036.8435 1041.2675 1046.5034 1050.9484">H5_DENSE</tspan></text>
<path transform="matrix(1,0,0,-1,-269.231,645.227)" d="M 1105.92 123.87283 L 1244.16 123.87283 L 1244.16 146.304 L 1105.92 146.304 Z " fill="#ffffff"/>
<path transform="matrix(1,0,0,-1,-269.231,645.227)" stroke-width="1" stroke-linecap="butt" stroke-miterlimit="10" stroke-linejoin="miter" fill="none" stroke="#000000" d="M 1105.92 123.87283 L 1244.16 123.87283 L 1244.16 146.304 L 1105.92 146.304 Z "/>
<text xml:space="preserve" transform="matrix(1 0 -0 1 -269.231 645.227)" font-size="7" font-family="DejaVuSans"><tspan y="-133.31497" x="1161.0557 1166.3197 1170.5967 1174.0967 1179.6057 1184.7297">HY_OUT</tspan></text>
<path transform="matrix(1,0,0,-1,-269.231,645.227)" d="M 235.88625 101.441669 L 276.48 101.441669 L 276.48 123.87283 L 235.88625 123.87283 Z " fill="#1764ab"/>
<path transform="matrix(1,0,0,-1,-269.231,645.227)" stroke-width="1" stroke-linecap="butt" stroke-miterlimit="10" stroke-linejoin="miter" fill="none" stroke="#000000" d="M 235.88625 101.441669 L 276.48 101.441669 L 276.48 123.87283 L 235.88625 123.87283 Z "/>
<text xml:space="preserve" transform="matrix(1 0 -0 1 -269.231 645.227)" font-size="7" font-family="DejaVuSans"><tspan y="-110.72756" x="239.94562 245.20963 249.50063 252.37763 256.82264 262.54866 266.83967 269.71669">Hardware</tspan></text>
<path transform="matrix(1,0,0,-1,-269.231,645.227)" d="M 276.48 101.441669 L 414.72 101.441669 L 414.72 123.87283 L 276.48 123.87283 Z " fill="#ffffff"/>
<path transform="matrix(1,0,0,-1,-269.231,645.227)" stroke-width="1" stroke-linecap="butt" stroke-miterlimit="10" stroke-linejoin="miter" fill="none" stroke="#000000" d="M 276.48 101.441669 L 414.72 101.441669 L 414.72 123.87283 L 276.48 123.87283 Z "/>
<text xml:space="preserve" transform="matrix(1 0 -0 1 -269.231 645.227)" font-size="7" font-family="DejaVuSans"><tspan y="-110.72756" x="389.771 394.223 396.449">0.0</tspan></text>
<path transform="matrix(1,0,0,-1,-269.231,645.227)" d="M 414.72 101.441669 L 552.96 101.441669 L 552.96 123.87283 L 414.72 123.87283 Z " fill="#ffffff"/>
<path transform="matrix(1,0,0,-1,-269.231,645.227)" stroke-width="1" stroke-linecap="butt" stroke-miterlimit="10" stroke-linejoin="miter" fill="none" stroke="#000000" d="M 414.72 101.441669 L 552.96 101.441669 L 552.96 123.87283 L 414.72 123.87283 Z "/>
<text xml:space="preserve" transform="matrix(1 0 -0 1 -269.231 645.227)" font-size="7" font-family="DejaVuSans"><tspan y="-110.72756" x="528.011 532.463 534.689">0.0</tspan></text>
<path transform="matrix(1,0,0,-1,-269.231,645.227)" d="M 552.96 101.441669 L 691.2 101.441669 L 691.2 123.87283 L 552.96 123.87283 Z " fill="#ffffff"/>
<path transform="matrix(1,0,0,-1,-269.231,645.227)" stroke-width="1" stroke-linecap="butt" stroke-miterlimit="10" stroke-linejoin="miter" fill="none" stroke="#000000" d="M 552.96 101.441669 L 691.2 101.441669 L 691.2 123.87283 L 552.96 123.87283 Z "/>
<text xml:space="preserve" transform="matrix(1 0 -0 1 -269.231 645.227)" font-size="7" font-family="DejaVuSans"><tspan y="-110.72756" x="666.251 670.703 672.929">0.0</tspan></text>
<path transform="matrix(1,0,0,-1,-269.231,645.227)" d="M 691.2 101.441669 L 829.44 101.441669 L 829.44 123.87283 L 691.2 123.87283 Z " fill="#ffffff"/>
<path transform="matrix(1,0,0,-1,-269.231,645.227)" stroke-width="1" stroke-linecap="butt" stroke-miterlimit="10" stroke-linejoin="miter" fill="none" stroke="#000000" d="M 691.2 101.441669 L 829.44 101.441669 L 829.44 123.87283 L 691.2 123.87283 Z "/>
<text xml:space="preserve" transform="matrix(1 0 -0 1 -269.231 645.227)" font-size="7" font-family="DejaVuSans"><tspan y="-110.72756" x="804.491 808.94308 811.16909">0.0</tspan></text>
<path transform="matrix(1,0,0,-1,-269.231,645.227)" d="M 829.44 101.441669 L 967.68 101.441669 L 967.68 123.87283 L 829.44 123.87283 Z " fill="#ffffff"/>
<path transform="matrix(1,0,0,-1,-269.231,645.227)" stroke-width="1" stroke-linecap="butt" stroke-miterlimit="10" stroke-linejoin="miter" fill="none" stroke="#000000" d="M 829.44 101.441669 L 967.68 101.441669 L 967.68 123.87283 L 829.44 123.87283 Z "/>
<text xml:space="preserve" transform="matrix(1 0 -0 1 -269.231 645.227)" font-size="7" font-family="DejaVuSans"><tspan y="-110.72756" x="942.731 947.18307 949.40908">0.0</tspan></text>
<path transform="matrix(1,0,0,-1,-269.231,645.227)" d="M 967.68 101.441669 L 1105.92 101.441669 L 1105.92 123.87283 L 967.68 123.87283 Z " fill="#ffffff"/>
<path transform="matrix(1,0,0,-1,-269.231,645.227)" stroke-width="1" stroke-linecap="butt" stroke-miterlimit="10" stroke-linejoin="miter" fill="none" stroke="#000000" d="M 967.68 101.441669 L 1105.92 101.441669 L 1105.92 123.87283 L 967.68 123.87283 Z "/>
<text xml:space="preserve" transform="matrix(1 0 -0 1 -269.231 645.227)" font-size="7" font-family="DejaVuSans"><tspan y="-110.72756" x="1080.971 1085.423 1087.6489">0.0</tspan></text>
<path transform="matrix(1,0,0,-1,-269.231,645.227)" d="M 1105.92 101.441669 L 1244.16 101.441669 L 1244.16 123.87283 L 1105.92 123.87283 Z " fill="#ffffff"/>
<path transform="matrix(1,0,0,-1,-269.231,645.227)" stroke-width="1" stroke-linecap="butt" stroke-miterlimit="10" stroke-linejoin="miter" fill="none" stroke="#000000" d="M 1105.92 101.441669 L 1244.16 101.441669 L 1244.16 123.87283 L 1105.92 123.87283 Z "/>
<text xml:space="preserve" transform="matrix(1 0 -0 1 -269.231 645.227)" font-size="7" font-family="DejaVuSans"><tspan y="-110.72756" x="1219.211 1223.6631 1225.889">0.0</tspan></text>
<path transform="matrix(1,0,0,-1,-269.231,645.227)" d="M 235.88625 79.01049 L 276.48 79.01049 L 276.48 101.441669 L 235.88625 101.441669 Z " fill="#4a98c9"/>
<path transform="matrix(1,0,0,-1,-269.231,645.227)" stroke-width="1" stroke-linecap="butt" stroke-miterlimit="10" stroke-linejoin="miter" fill="none" stroke="#000000" d="M 235.88625 79.01049 L 276.48 79.01049 L 276.48 101.441669 L 235.88625 101.441669 Z "/>
<text xml:space="preserve" transform="matrix(1 0 -0 1 -269.231 645.227)" font-size="7" font-family="DejaVuSans"><tspan y="-88.29639" x="239.94562 244.39063 248.67462 251.13863 253.88263 259.60865 263.89967 266.77668">Software</tspan></text>
<path transform="matrix(1,0,0,-1,-269.231,645.227)" d="M 276.48 79.01049 L 414.72 79.01049 L 414.72 101.441669 L 276.48 101.441669 Z " fill="#ffffff"/>
<path transform="matrix(1,0,0,-1,-269.231,645.227)" stroke-width="1" stroke-linecap="butt" stroke-miterlimit="10" stroke-linejoin="miter" fill="none" stroke="#000000" d="M 276.48 79.01049 L 414.72 79.01049 L 414.72 101.441669 L 276.48 101.441669 Z "/>
<text xml:space="preserve" transform="matrix(1 0 -0 1 -269.231 645.227)" font-size="7" font-family="DejaVuSans"><tspan y="-88.29639" x="380.86476 385.31675 387.54277 391.99476 396.44676">1.184</tspan></text>
<path transform="matrix(1,0,0,-1,-269.231,645.227)" d="M 414.72 79.01049 L 552.96 79.01049 L 552.96 101.441669 L 414.72 101.441669 Z " fill="#ffffff"/>
<path transform="matrix(1,0,0,-1,-269.231,645.227)" stroke-width="1" stroke-linecap="butt" stroke-miterlimit="10" stroke-linejoin="miter" fill="none" stroke="#000000" d="M 414.72 79.01049 L 552.96 79.01049 L 552.96 101.441669 L 414.72 101.441669 Z "/>
<text xml:space="preserve" transform="matrix(1 0 -0 1 -269.231 645.227)" font-size="7" font-family="DejaVuSans"><tspan y="-88.29639" x="519.10476 523.55679 525.7828 530.2348 534.6868">4.865</tspan></text>
<path transform="matrix(1,0,0,-1,-269.231,645.227)" d="M 552.96 79.01049 L 691.2 79.01049 L 691.2 101.441669 L 552.96 101.441669 Z " fill="#ffffff"/>
<path transform="matrix(1,0,0,-1,-269.231,645.227)" stroke-width="1" stroke-linecap="butt" stroke-miterlimit="10" stroke-linejoin="miter" fill="none" stroke="#000000" d="M 552.96 79.01049 L 691.2 79.01049 L 691.2 101.441669 L 552.96 101.441669 Z "/>
<text xml:space="preserve" transform="matrix(1 0 -0 1 -269.231 645.227)" font-size="7" font-family="DejaVuSans"><tspan y="-88.29639" x="657.3447 661.79678 664.02279 668.4748 672.9268">3.656</tspan></text>
<path transform="matrix(1,0,0,-1,-269.231,645.227)" d="M 691.2 79.01049 L 829.44 79.01049 L 829.44 101.441669 L 691.2 101.441669 Z " fill="#ffffff"/>
<path transform="matrix(1,0,0,-1,-269.231,645.227)" stroke-width="1" stroke-linecap="butt" stroke-miterlimit="10" stroke-linejoin="miter" fill="none" stroke="#000000" d="M 691.2 79.01049 L 829.44 79.01049 L 829.44 101.441669 L 691.2 101.441669 Z "/>
<text xml:space="preserve" transform="matrix(1 0 -0 1 -269.231 645.227)" font-size="7" font-family="DejaVuSans"><tspan y="-88.29639" x="791.13168 795.5837 800.0357 802.2617 806.71377 811.1658">20.643</tspan></text>
<path transform="matrix(1,0,0,-1,-269.231,645.227)" d="M 829.44 79.01049 L 967.68 79.01049 L 967.68 101.441669 L 829.44 101.441669 Z " fill="#ffffff"/>
<path transform="matrix(1,0,0,-1,-269.231,645.227)" stroke-width="1" stroke-linecap="butt" stroke-miterlimit="10" stroke-linejoin="miter" fill="none" stroke="#000000" d="M 829.44 79.01049 L 967.68 79.01049 L 967.68 101.441669 L 829.44 101.441669 Z "/>
<text xml:space="preserve" transform="matrix(1 0 -0 1 -269.231 645.227)" font-size="7" font-family="DejaVuSans"><tspan y="-88.29639" x="933.82479 938.2768 940.5028 944.95486 949.40689">0.828</tspan></text>
<path transform="matrix(1,0,0,-1,-269.231,645.227)" d="M 967.68 79.01049 L 1105.92 79.01049 L 1105.92 101.441669 L 967.68 101.441669 Z " fill="#ffffff"/>
<path transform="matrix(1,0,0,-1,-269.231,645.227)" stroke-width="1" stroke-linecap="butt" stroke-miterlimit="10" stroke-linejoin="miter" fill="none" stroke="#000000" d="M 967.68 79.01049 L 1105.92 79.01049 L 1105.92 101.441669 L 967.68 101.441669 Z "/>
<text xml:space="preserve" transform="matrix(1 0 -0 1 -269.231 645.227)" font-size="7" font-family="DejaVuSans"><tspan y="-88.29639" x="1072.0647 1076.5167 1078.7427 1083.1947 1087.6467">3.099</tspan></text>
<path transform="matrix(1,0,0,-1,-269.231,645.227)" d="M 1105.92 79.01049 L 1244.16 79.01049 L 1244.16 101.441669 L 1105.92 101.441669 Z " fill="#ffffff"/>
<path transform="matrix(1,0,0,-1,-269.231,645.227)" stroke-width="1" stroke-linecap="butt" stroke-miterlimit="10" stroke-linejoin="miter" fill="none" stroke="#000000" d="M 1105.92 79.01049 L 1244.16 79.01049 L 1244.16 101.441669 L 1105.92 101.441669 Z "/>
<text xml:space="preserve" transform="matrix(1 0 -0 1 -269.231 645.227)" font-size="7" font-family="DejaVuSans"><tspan y="-88.29639" x="1210.3048 1214.7568 1216.9828 1221.4348 1225.8869">0.004</tspan></text>
<path transform="matrix(1,0,0,-1,-269.231,645.227)" d="M 235.88625 56.579328 L 276.48 56.579328 L 276.48 79.01049 L 235.88625 79.01049 Z " fill="#94c4df"/>
<path transform="matrix(1,0,0,-1,-269.231,645.227)" stroke-width="1" stroke-linecap="butt" stroke-miterlimit="10" stroke-linejoin="miter" fill="none" stroke="#000000" d="M 235.88625 56.579328 L 276.48 56.579328 L 276.48 79.01049 L 235.88625 79.01049 Z "/>
<text xml:space="preserve" transform="matrix(1 0 -0 1 -269.231 645.227)" font-size="7" font-family="DejaVuSans"><tspan y="-65.86522" x="239.94562 242.01062 244.07563 246.30162 251.81063 255.83562 259.86064 264.30564 268.72966">II OFFSET</tspan></text>
<path transform="matrix(1,0,0,-1,-269.231,645.227)" d="M 276.48 56.579328 L 414.72 56.579328 L 414.72 79.01049 L 276.48 79.01049 Z " fill="#ffffff"/>
<path transform="matrix(1,0,0,-1,-269.231,645.227)" stroke-width="1" stroke-linecap="butt" stroke-miterlimit="10" stroke-linejoin="miter" fill="none" stroke="#000000" d="M 276.48 56.579328 L 414.72 56.579328 L 414.72 79.01049 L 276.48 79.01049 Z "/>
<text xml:space="preserve" transform="matrix(1 0 -0 1 -269.231 645.227)" font-size="7" font-family="DejaVuSans"><tspan y="-65.86522" x="380.86476 385.31675 387.54277 391.99476 396.44676">0.001</tspan></text>
<path transform="matrix(1,0,0,-1,-269.231,645.227)" d="M 414.72 56.579328 L 552.96 56.579328 L 552.96 79.01049 L 414.72 79.01049 Z " fill="#ffffff"/>
<path transform="matrix(1,0,0,-1,-269.231,645.227)" stroke-width="1" stroke-linecap="butt" stroke-miterlimit="10" stroke-linejoin="miter" fill="none" stroke="#000000" d="M 414.72 56.579328 L 552.96 56.579328 L 552.96 79.01049 L 414.72 79.01049 Z "/>
<text xml:space="preserve" transform="matrix(1 0 -0 1 -269.231 645.227)" font-size="7" font-family="DejaVuSans"><tspan y="-65.86522" x="519.10476 523.55679 525.7828 530.2348 534.6868">1.187</tspan></text>
<path transform="matrix(1,0,0,-1,-269.231,645.227)" d="M 552.96 56.579328 L 691.2 56.579328 L 691.2 79.01049 L 552.96 79.01049 Z " fill="#ffffff"/>
<path transform="matrix(1,0,0,-1,-269.231,645.227)" stroke-width="1" stroke-linecap="butt" stroke-miterlimit="10" stroke-linejoin="miter" fill="none" stroke="#000000" d="M 552.96 56.579328 L 691.2 56.579328 L 691.2 79.01049 L 552.96 79.01049 Z "/>
<text xml:space="preserve" transform="matrix(1 0 -0 1 -269.231 645.227)" font-size="7" font-family="DejaVuSans"><tspan y="-65.86522" x="657.3447 661.79678 664.02279 668.4748 672.9268">6.053</tspan></text>
<path transform="matrix(1,0,0,-1,-269.231,645.227)" d="M 691.2 56.579328 L 829.44 56.579328 L 829.44 79.01049 L 691.2 79.01049 Z " fill="#ffffff"/>
<path transform="matrix(1,0,0,-1,-269.231,645.227)" stroke-width="1" stroke-linecap="butt" stroke-miterlimit="10" stroke-linejoin="miter" fill="none" stroke="#000000" d="M 691.2 56.579328 L 829.44 56.579328 L 829.44 79.01049 L 691.2 79.01049 Z "/>
<text xml:space="preserve" transform="matrix(1 0 -0 1 -269.231 645.227)" font-size="7" font-family="DejaVuSans"><tspan y="-65.86522" x="795.5848 800.0368 802.2628 806.71487 811.1669">9.711</tspan></text>
<path transform="matrix(1,0,0,-1,-269.231,645.227)" d="M 829.44 56.579328 L 967.68 56.579328 L 967.68 79.01049 L 829.44 79.01049 Z " fill="#ffffff"/>
<path transform="matrix(1,0,0,-1,-269.231,645.227)" stroke-width="1" stroke-linecap="butt" stroke-miterlimit="10" stroke-linejoin="miter" fill="none" stroke="#000000" d="M 829.44 56.579328 L 967.68 56.579328 L 967.68 79.01049 L 829.44 79.01049 Z "/>
<text xml:space="preserve" transform="matrix(1 0 -0 1 -269.231 645.227)" font-size="7" font-family="DejaVuSans"><tspan y="-65.86522" x="929.37167 933.82369 938.2757 940.5017 944.95376 949.40579">30.356</tspan></text>
<path transform="matrix(1,0,0,-1,-269.231,645.227)" d="M 967.68 56.579328 L 1105.92 56.579328 L 1105.92 79.01049 L 967.68 79.01049 Z " fill="#ffffff"/>
<path transform="matrix(1,0,0,-1,-269.231,645.227)" stroke-width="1" stroke-linecap="butt" stroke-miterlimit="10" stroke-linejoin="miter" fill="none" stroke="#000000" d="M 967.68 56.579328 L 1105.92 56.579328 L 1105.92 79.01049 L 967.68 79.01049 Z "/>
<text xml:space="preserve" transform="matrix(1 0 -0 1 -269.231 645.227)" font-size="7" font-family="DejaVuSans"><tspan y="-65.86522" x="1067.6116 1072.0636 1076.5156 1078.7416 1083.1936 1087.6456">31.186</tspan></text>
<path transform="matrix(1,0,0,-1,-269.231,645.227)" d="M 1105.92 56.579328 L 1244.16 56.579328 L 1244.16 79.01049 L 1105.92 79.01049 Z " fill="#ffffff"/>
<path transform="matrix(1,0,0,-1,-269.231,645.227)" stroke-width="1" stroke-linecap="butt" stroke-miterlimit="10" stroke-linejoin="miter" fill="none" stroke="#000000" d="M 1105.92 56.579328 L 1244.16 56.579328 L 1244.16 79.01049 L 1105.92 79.01049 Z "/>
<text xml:space="preserve" transform="matrix(1 0 -0 1 -269.231 645.227)" font-size="7" font-family="DejaVuSans"><tspan y="-65.86522" x="1205.8516 1210.3036 1214.7556 1216.9816 1221.4336 1225.8856">34.287</tspan></text>
<clipPath id="cp25">
<path transform="matrix(1,0,0,-1,-269.231,645.227)" d="M 276.48 146.304 L 1244.16 146.304 L 1244.16 372.4102 L 276.48 372.4102 Z "/>
</clipPath>
<g clip-path="url(#cp25)">
<path transform="matrix(1,0,0,-1,-269.231,645.227)" d="M 320.46546 146.304 L 375.44728 146.304 L 375.44728 146.3106 L 320.46546 146.3106 Z " fill="#94c4df"/>
</g>
<clipPath id="cp26">
<path transform="matrix(1,0,0,-1,-269.231,645.227)" d="M 276.48 146.304 L 1244.16 146.304 L 1244.16 372.4102 L 276.48 372.4102 Z "/>
</clipPath>
<g clip-path="url(#cp26)">
<path transform="matrix(1,0,0,-1,-269.231,645.227)" d="M 457.92 146.304 L 512.9018 146.304 L 512.9018 154.13079 L 457.92 154.13079 Z " fill="#94c4df"/>
</g>
<clipPath id="cp27">
<path transform="matrix(1,0,0,-1,-269.231,645.227)" d="M 276.48 146.304 L 1244.16 146.304 L 1244.16 372.4102 L 276.48 372.4102 Z "/>
</clipPath>
<g clip-path="url(#cp27)">
<path transform="matrix(1,0,0,-1,-269.231,645.227)" d="M 595.3746 146.304 L 650.3564 146.304 L 650.3564 186.21596 L 595.3746 186.21596 Z " fill="#94c4df"/>
</g>
<clipPath id="cp28">
<path transform="matrix(1,0,0,-1,-269.231,645.227)" d="M 276.48 146.304 L 1244.16 146.304 L 1244.16 372.4102 L 276.48 372.4102 Z "/>
</clipPath>
<g clip-path="url(#cp28)">
<path transform="matrix(1,0,0,-1,-269.231,645.227)" d="M 732.8291 146.304 L 787.8109 146.304 L 787.8109 210.33588 L 732.8291 210.33588 Z " fill="#94c4df"/>
</g>
<clipPath id="cp29">
<path transform="matrix(1,0,0,-1,-269.231,645.227)" d="M 276.48 146.304 L 1244.16 146.304 L 1244.16 372.4102 L 276.48 372.4102 Z "/>
</clipPath>
<g clip-path="url(#cp29)">
<path transform="matrix(1,0,0,-1,-269.231,645.227)" d="M 870.2836 146.304 L 925.26547 146.304 L 925.26547 346.46379 L 870.2836 346.46379 Z " fill="#94c4df"/>
</g>
<clipPath id="cp30">
<path transform="matrix(1,0,0,-1,-269.231,645.227)" d="M 276.48 146.304 L 1244.16 146.304 L 1244.16 372.4102 L 276.48 372.4102 Z "/>
</clipPath>
<g clip-path="url(#cp30)">
<path transform="matrix(1,0,0,-1,-269.231,645.227)" d="M 1007.73818 146.304 L 1062.72 146.304 L 1062.72 351.93659 L 1007.73818 351.93659 Z " fill="#94c4df"/>
</g>
<clipPath id="cp31">
<path transform="matrix(1,0,0,-1,-269.231,645.227)" d="M 276.48 146.304 L 1244.16 146.304 L 1244.16 372.4102 L 276.48 372.4102 Z "/>
</clipPath>
<g clip-path="url(#cp31)">
<path transform="matrix(1,0,0,-1,-269.231,645.227)" d="M 1145.1928 146.304 L 1200.1746 146.304 L 1200.1746 372.38383 L 1145.1928 372.38383 Z " fill="#94c4df"/>
</g>
<clipPath id="cp32">
<path transform="matrix(1,0,0,-1,-269.231,645.227)" d="M 276.48 146.304 L 1244.16 146.304 L 1244.16 372.4102 L 276.48 372.4102 Z "/>
</clipPath>
<g clip-path="url(#cp32)">
<path transform="matrix(1,0,0,-1,-269.231,645.227)" d="M 320.46546 146.3106 L 375.44728 146.3106 L 375.44728 154.11759 L 320.46546 154.11759 Z " fill="#4a98c9"/>
</g>
<clipPath id="cp33">
<path transform="matrix(1,0,0,-1,-269.231,645.227)" d="M 276.48 146.304 L 1244.16 146.304 L 1244.16 372.4102 L 276.48 372.4102 Z "/>
</clipPath>
<g clip-path="url(#cp33)">
<path transform="matrix(1,0,0,-1,-269.231,645.227)" d="M 457.92 154.13079 L 512.9018 154.13079 L 512.9018 186.20935 L 457.92 186.20935 Z " fill="#4a98c9"/>
</g>
<clipPath id="cp34">
<path transform="matrix(1,0,0,-1,-269.231,645.227)" d="M 276.48 146.304 L 1244.16 146.304 L 1244.16 372.4102 L 276.48 372.4102 Z "/>
</clipPath>
<g clip-path="url(#cp34)">
<path transform="matrix(1,0,0,-1,-269.231,645.227)" d="M 595.3746 186.21596 L 650.3564 186.21596 L 650.3564 210.3227 L 595.3746 210.3227 Z " fill="#4a98c9"/>
</g>
<clipPath id="cp35">
<path transform="matrix(1,0,0,-1,-269.231,645.227)" d="M 276.48 146.304 L 1244.16 146.304 L 1244.16 372.4102 L 276.48 372.4102 Z "/>
</clipPath>
<g clip-path="url(#cp35)">
<path transform="matrix(1,0,0,-1,-269.231,645.227)" d="M 732.8291 210.33588 L 787.8109 210.33588 L 787.8109 346.4506 L 732.8291 346.4506 Z " fill="#4a98c9"/>
</g>
<clipPath id="cp36">
<path transform="matrix(1,0,0,-1,-269.231,645.227)" d="M 276.48 146.304 L 1244.16 146.304 L 1244.16 372.4102 L 276.48 372.4102 Z "/>
</clipPath>
<g clip-path="url(#cp36)">
<path transform="matrix(1,0,0,-1,-269.231,645.227)" d="M 870.2836 346.46379 L 925.26547 346.46379 L 925.26547 351.9234 L 870.2836 351.9234 Z " fill="#4a98c9"/>
</g>
<clipPath id="cp37">
<path transform="matrix(1,0,0,-1,-269.231,645.227)" d="M 276.48 146.304 L 1244.16 146.304 L 1244.16 372.4102 L 276.48 372.4102 Z "/>
</clipPath>
<g clip-path="url(#cp37)">
<path transform="matrix(1,0,0,-1,-269.231,645.227)" d="M 1007.73818 351.93659 L 1062.72 351.93659 L 1062.72 372.3706 L 1007.73818 372.3706 Z " fill="#4a98c9"/>
</g>
<clipPath id="cp38">
<path transform="matrix(1,0,0,-1,-269.231,645.227)" d="M 276.48 146.304 L 1244.16 146.304 L 1244.16 372.4102 L 276.48 372.4102 Z "/>
</clipPath>
<g clip-path="url(#cp38)">
<path transform="matrix(1,0,0,-1,-269.231,645.227)" d="M 1145.1928 372.38383 L 1200.1746 372.38383 L 1200.1746 372.4102 L 1145.1928 372.4102 Z " fill="#4a98c9"/>
</g>
<clipPath id="cp39">
<path transform="matrix(1,0,0,-1,-269.231,645.227)" d="M 276.48 146.304 L 1244.16 146.304 L 1244.16 372.4102 L 276.48 372.4102 Z "/>
</clipPath>
<g clip-path="url(#cp39)">
<path transform="matrix(1,0,0,-1,-269.231,645.227)" d="M 320.46546 154.11759 L 375.44728 154.11759 L 320.46546 154.11759 Z " fill="#1764ab"/>
</g>
<clipPath id="cp40">
<path transform="matrix(1,0,0,-1,-269.231,645.227)" d="M 276.48 146.304 L 1244.16 146.304 L 1244.16 372.4102 L 276.48 372.4102 Z "/>
</clipPath>
<g clip-path="url(#cp40)">
<path transform="matrix(1,0,0,-1,-269.231,645.227)" d="M 457.92 186.20935 L 512.9018 186.20935 L 457.92 186.20935 Z " fill="#1764ab"/>
</g>
<clipPath id="cp41">
<path transform="matrix(1,0,0,-1,-269.231,645.227)" d="M 276.48 146.304 L 1244.16 146.304 L 1244.16 372.4102 L 276.48 372.4102 Z "/>
</clipPath>
<g clip-path="url(#cp41)">
<path transform="matrix(1,0,0,-1,-269.231,645.227)" d="M 595.3746 210.3227 L 650.3564 210.3227 L 595.3746 210.3227 Z " fill="#1764ab"/>
</g>
<clipPath id="cp42">
<path transform="matrix(1,0,0,-1,-269.231,645.227)" d="M 276.48 146.304 L 1244.16 146.304 L 1244.16 372.4102 L 276.48 372.4102 Z "/>
</clipPath>
<g clip-path="url(#cp42)">
<path transform="matrix(1,0,0,-1,-269.231,645.227)" d="M 732.8291 346.4506 L 787.8109 346.4506 L 732.8291 346.4506 Z " fill="#1764ab"/>
</g>
<clipPath id="cp43">
<path transform="matrix(1,0,0,-1,-269.231,645.227)" d="M 276.48 146.304 L 1244.16 146.304 L 1244.16 372.4102 L 276.48 372.4102 Z "/>
</clipPath>
<g clip-path="url(#cp43)">
<path transform="matrix(1,0,0,-1,-269.231,645.227)" d="M 870.2836 351.9234 L 925.26547 351.9234 L 870.2836 351.9234 Z " fill="#1764ab"/>
</g>
<clipPath id="cp44">
<path transform="matrix(1,0,0,-1,-269.231,645.227)" d="M 276.48 146.304 L 1244.16 146.304 L 1244.16 372.4102 L 276.48 372.4102 Z "/>
</clipPath>
<g clip-path="url(#cp44)">
<path transform="matrix(1,0,0,-1,-269.231,645.227)" d="M 1007.73818 372.3706 L 1062.72 372.3706 L 1007.73818 372.3706 Z " fill="#1764ab"/>
</g>
<clipPath id="cp45">
<path transform="matrix(1,0,0,-1,-269.231,645.227)" d="M 276.48 146.304 L 1244.16 146.304 L 1244.16 372.4102 L 276.48 372.4102 Z "/>
</clipPath>
<g clip-path="url(#cp45)">
<path transform="matrix(1,0,0,-1,-269.231,645.227)" d="M 1145.1928 372.4102 L 1200.1746 372.4102 L 1145.1928 372.4102 Z " fill="#1764ab"/>
</g>
<clipPath id="cp46">
<path transform="matrix(1,0,0,-1,-269.231,645.227)" d="M 276.48 146.304 L 1244.16 146.304 L 1244.16 372.4102 L 276.48 372.4102 Z "/>
</clipPath>
<g clip-path="url(#cp46)">
<path transform="matrix(1,0,0,-1,-269.231,645.227)" stroke-width=".8" stroke-linecap="butt" stroke-dasharray=".8,1.32" stroke-linejoin="round" fill="none" stroke="#bebebe" d="M 276.48 146.304 L 1244.16 146.304 "/>
</g>
<path transform="matrix(1,0,0,-1,-269.231,645.227)" d="M 276.48 146.304 L 272.98 146.304 "/>
<path transform="matrix(1,0,0,-1,-269.231,645.227)" stroke-width=".8" stroke-linecap="butt" stroke-linejoin="round" fill="none" stroke="#000000" d="M 276.48 146.304 L 272.98 146.304 "/>
<text xml:space="preserve" transform="matrix(1 0 -0 1 -269.231 645.227)" font-size="10" font-family="DejaVuSans"><tspan y="-142.50713" x="263.12065">0</tspan></text>
<clipPath id="cp47">
<path transform="matrix(1,0,0,-1,-269.231,645.227)" d="M 276.48 146.304 L 1244.16 146.304 L 1244.16 372.4102 L 276.48 372.4102 Z "/>
</clipPath>
<g clip-path="url(#cp47)">
<path transform="matrix(1,0,0,-1,-269.231,645.227)" stroke-width=".8" stroke-linecap="butt" stroke-dasharray=".8,1.32" stroke-linejoin="round" fill="none" stroke="#bebebe" d="M 276.48 179.27274 L 1244.16 179.27274 "/>
</g>
<path transform="matrix(1,0,0,-1,-269.231,645.227)" d="M 276.48 179.27274 L 272.98 179.27274 "/>
<path transform="matrix(1,0,0,-1,-269.231,645.227)" stroke-width=".8" stroke-linecap="butt" stroke-linejoin="round" fill="none" stroke="#000000" d="M 276.48 179.27274 L 272.98 179.27274 "/>
<text xml:space="preserve" transform="matrix(1 0 -0 1 -269.231 645.227)" font-size="10" font-family="DejaVuSans"><tspan y="-175.47586" x="263.12065">5</tspan></text>
<clipPath id="cp48">
<path transform="matrix(1,0,0,-1,-269.231,645.227)" d="M 276.48 146.304 L 1244.16 146.304 L 1244.16 372.4102 L 276.48 372.4102 Z "/>
</clipPath>
<g clip-path="url(#cp48)">
<path transform="matrix(1,0,0,-1,-269.231,645.227)" stroke-width=".8" stroke-linecap="butt" stroke-dasharray=".8,1.32" stroke-linejoin="round" fill="none" stroke="#bebebe" d="M 276.48 212.24147 L 1244.16 212.24147 "/>
</g>
<path transform="matrix(1,0,0,-1,-269.231,645.227)" d="M 276.48 212.24147 L 272.98 212.24147 "/>
<path transform="matrix(1,0,0,-1,-269.231,645.227)" stroke-width=".8" stroke-linecap="butt" stroke-linejoin="round" fill="none" stroke="#000000" d="M 276.48 212.24147 L 272.98 212.24147 "/>
<text xml:space="preserve" transform="matrix(1 0 -0 1 -269.231 645.227)" font-size="10" font-family="DejaVuSans"><tspan y="-208.4446" x="256.76127 263.12129">10</tspan></text>
<clipPath id="cp49">
<path transform="matrix(1,0,0,-1,-269.231,645.227)" d="M 276.48 146.304 L 1244.16 146.304 L 1244.16 372.4102 L 276.48 372.4102 Z "/>
</clipPath>
<g clip-path="url(#cp49)">
<path transform="matrix(1,0,0,-1,-269.231,645.227)" stroke-width=".8" stroke-linecap="butt" stroke-dasharray=".8,1.32" stroke-linejoin="round" fill="none" stroke="#bebebe" d="M 276.48 245.2102 L 1244.16 245.2102 "/>
</g>
<path transform="matrix(1,0,0,-1,-269.231,645.227)" d="M 276.48 245.2102 L 272.98 245.2102 "/>
<path transform="matrix(1,0,0,-1,-269.231,645.227)" stroke-width=".8" stroke-linecap="butt" stroke-linejoin="round" fill="none" stroke="#000000" d="M 276.48 245.2102 L 272.98 245.2102 "/>
<text xml:space="preserve" transform="matrix(1 0 -0 1 -269.231 645.227)" font-size="10" font-family="DejaVuSans"><tspan y="-241.41333" x="256.76127 263.12129">15</tspan></text>
<clipPath id="cp50">
<path transform="matrix(1,0,0,-1,-269.231,645.227)" d="M 276.48 146.304 L 1244.16 146.304 L 1244.16 372.4102 L 276.48 372.4102 Z "/>
</clipPath>
<g clip-path="url(#cp50)">
<path transform="matrix(1,0,0,-1,-269.231,645.227)" stroke-width=".8" stroke-linecap="butt" stroke-dasharray=".8,1.32" stroke-linejoin="round" fill="none" stroke="#bebebe" d="M 276.48 278.17897 L 1244.16 278.17897 "/>
</g>
<path transform="matrix(1,0,0,-1,-269.231,645.227)" d="M 276.48 278.17897 L 272.98 278.17897 "/>
<path transform="matrix(1,0,0,-1,-269.231,645.227)" stroke-width=".8" stroke-linecap="butt" stroke-linejoin="round" fill="none" stroke="#000000" d="M 276.48 278.17897 L 272.98 278.17897 "/>
<text xml:space="preserve" transform="matrix(1 0 -0 1 -269.231 645.227)" font-size="10" font-family="DejaVuSans"><tspan y="-274.38209" x="256.76127 263.12129">20</tspan></text>
<clipPath id="cp51">
<path transform="matrix(1,0,0,-1,-269.231,645.227)" d="M 276.48 146.304 L 1244.16 146.304 L 1244.16 372.4102 L 276.48 372.4102 Z "/>
</clipPath>
<g clip-path="url(#cp51)">
<path transform="matrix(1,0,0,-1,-269.231,645.227)" stroke-width=".8" stroke-linecap="butt" stroke-dasharray=".8,1.32" stroke-linejoin="round" fill="none" stroke="#bebebe" d="M 276.48 311.14768 L 1244.16 311.14768 "/>
</g>
<path transform="matrix(1,0,0,-1,-269.231,645.227)" d="M 276.48 311.14768 L 272.98 311.14768 "/>
<path transform="matrix(1,0,0,-1,-269.231,645.227)" stroke-width=".8" stroke-linecap="butt" stroke-linejoin="round" fill="none" stroke="#000000" d="M 276.48 311.14768 L 272.98 311.14768 "/>
<text xml:space="preserve" transform="matrix(1 0 -0 1 -269.231 645.227)" font-size="10" font-family="DejaVuSans"><tspan y="-307.3508" x="256.76127 263.12129">25</tspan></text>
<clipPath id="cp52">
<path transform="matrix(1,0,0,-1,-269.231,645.227)" d="M 276.48 146.304 L 1244.16 146.304 L 1244.16 372.4102 L 276.48 372.4102 Z "/>
</clipPath>
<g clip-path="url(#cp52)">
<path transform="matrix(1,0,0,-1,-269.231,645.227)" stroke-width=".8" stroke-linecap="butt" stroke-dasharray=".8,1.32" stroke-linejoin="round" fill="none" stroke="#bebebe" d="M 276.48 344.11643 L 1244.16 344.11643 "/>
</g>
<path transform="matrix(1,0,0,-1,-269.231,645.227)" d="M 276.48 344.11643 L 272.98 344.11643 "/>
<path transform="matrix(1,0,0,-1,-269.231,645.227)" stroke-width=".8" stroke-linecap="butt" stroke-linejoin="round" fill="none" stroke="#000000" d="M 276.48 344.11643 L 272.98 344.11643 "/>
<text xml:space="preserve" transform="matrix(1 0 -0 1 -269.231 645.227)" font-size="10" font-family="DejaVuSans"><tspan y="-340.31956" x="256.76127 263.12129">30</tspan></text>
<text xml:space="preserve" transform="matrix(0 -1 1 0 -269.231 645.227)" font-size="10" font-family="DejaVuSans"><tspan y="250.68312" x="226.03678 231.60678 237.73679 241.65679 247.80678 254.14678 259.6468 265.5668 268.7468 272.6468 282.38679 288.7368">Latency (mS)</tspan></text>
<path transform="matrix(1,0,0,-1,-269.231,645.227)" stroke-width=".8" stroke-linecap="square" stroke-miterlimit="10" stroke-linejoin="miter" fill="none" stroke="#000000" d="M 276.48 146.304 L 276.48 372.4102 "/>
<path transform="matrix(1,0,0,-1,-269.231,645.227)" stroke-width=".8" stroke-linecap="square" stroke-miterlimit="10" stroke-linejoin="miter" fill="none" stroke="#000000" d="M 1244.16 146.304 L 1244.16 372.4102 "/>
<path transform="matrix(1,0,0,-1,-269.231,645.227)" stroke-width=".8" stroke-linecap="square" stroke-miterlimit="10" stroke-linejoin="miter" fill="none" stroke="#000000" d="M 276.48 146.304 L 1244.16 146.304 "/>
<path transform="matrix(1,0,0,-1,-269.231,645.227)" stroke-width=".8" stroke-linecap="square" stroke-miterlimit="10" stroke-linejoin="miter" fill="none" stroke="#000000" d="M 276.48 372.4102 L 1244.16 372.4102 "/>
<text xml:space="preserve" transform="matrix(1 0 -0 1 -269.231 645.227)" font-size="12" font-family="DejaVuSans"><tspan y="-707.7646" x="653.16098 660.397 667.777 672.709 676.933 684.277 689.209 700.897 708.253 715.86099 722.46096">Performance</tspan></text>
</g>
</g>
</g>
</g>
</svg>
