<?xml version="1.0" encoding="UTF-8" standalone="no"?>
<svg
   xmlns:dc="http://purl.org/dc/elements/1.1/"
   xmlns:cc="http://creativecommons.org/ns#"
   xmlns:rdf="http://www.w3.org/1999/02/22-rdf-syntax-ns#"
   xmlns:svg="http://www.w3.org/2000/svg"
   xmlns="http://www.w3.org/2000/svg"
   xmlns:sodipodi="http://sodipodi.sourceforge.net/DTD/sodipodi-0.dtd"
   xmlns:inkscape="http://www.inkscape.org/namespaces/inkscape"
   width="210mm"
   height="297mm"
   viewBox="0 0 210 297"
   version="1.1"
   id="svg8"
   inkscape:version="1.0.1 (3bc2e813f5, 2020-09-07)"
   sodipodi:docname="Fig1.svg">
  <defs
     id="defs2" />
  <sodipodi:namedview
     id="base"
     pagecolor="#ffffff"
     bordercolor="#666666"
     borderopacity="1.0"
     inkscape:pageopacity="0.0"
     inkscape:pageshadow="2"
     inkscape:zoom="0.98994949"
     inkscape:cx="541.17581"
     inkscape:cy="362.62771"
     inkscape:document-units="mm"
     inkscape:current-layer="layer1"
     inkscape:document-rotation="0"
     showgrid="false"
     inkscape:window-width="1920"
     inkscape:window-height="1149"
     inkscape:window-x="0"
     inkscape:window-y="0"
     inkscape:window-maximized="1" />
  <metadata
     id="metadata5">
    <rdf:RDF>
      <cc:Work
         rdf:about="">
        <dc:format>image/svg+xml</dc:format>
        <dc:type
           rdf:resource="http://purl.org/dc/dcmitype/StillImage" />
        <dc:title></dc:title>
      </cc:Work>
    </rdf:RDF>
  </metadata>
  <g
     inkscape:label="Ebene 1"
     inkscape:groupmode="layer"
     id="layer1">
    <path
       style="fill:#ff0000;stroke-width:0.149448"
       id="path10"
       d="m 10.755835,80.232868 c 0.02081,0.876792 -0.03469,1.753661 -0.06708,2.629716 -0.04857,0.779349 -0.0046,1.558789 0.02781,2.33756 0.02232,0.623382 0.11932,1.240145 0.185752,1.859669 0.03644,0.417711 0.07164,0.836175 0.0864,1.255359 0.0092,0.260657 0.04044,0.541343 -0.04921,0.789683 0.630409,-0.398739 1.301155,-0.739903 1.891227,-1.196221 0.05952,-0.04603 -0.04755,-0.142987 -0.06475,-0.216236 -0.09532,-0.40595 -0.13204,-0.827201 -0.170488,-1.241392 -0.04345,-0.406317 -0.05769,-0.803348 0.03912,-1.201448 0.12614,-0.517147 0.513172,-0.66344 0.938704,-0.927083 1.004887,-0.574399 -0.845329,0.481438 -1.398205,0.833017 -0.0674,0.04286 0.150418,-0.05523 0.228434,-0.07236 0.230505,-0.05062 0.428202,-0.009 0.650797,0.04945 0.477284,0.193414 0.809804,0.578812 1.118251,0.97438 0.222594,0.290406 0.418803,0.597822 0.587877,0.921952 0.10711,0.21575 0.222381,0.426666 0.343655,0.634774 0.06072,0.100422 0.13194,0.192686 0.184801,0.297348 0.02376,0.04849 0.009,0.04774 -0.03427,0.05325 0,0 2.044185,-0.961052 2.044185,-0.961052 v 0 c -0.0046,-0.07284 -0.01155,-0.143787 -0.04838,-0.208927 -0.05487,-0.11106 -0.127807,-0.207458 -0.198928,-0.308845 -0.123998,-0.202395 -0.231485,-0.412879 -0.342863,-0.622238 -0.180275,-0.333269 -0.387462,-0.64947 -0.619314,-0.949477 -0.336846,-0.426361 -0.694525,-0.838922 -1.189496,-1.087216 -0.19937,-0.07331 -0.265864,-0.110904 -0.477213,-0.137232 -1.050165,-0.130825 -2.038728,0.903686 -2.918442,1.389004 -0.474357,0.317342 -0.77843,0.510149 -0.883433,1.095695 -0.07458,0.420004 -0.0534,0.834442 0.0033,1.256646 0.04663,0.426448 0.08474,0.864145 0.18531,1.282115 0.02214,0.092 -0.0081,0.298478 0.08263,0.271588 0.72157,-0.213863 1.37791,-0.60578 2.066864,-0.908669 0.04784,-0.696172 -0.06072,-1.394721 -0.09617,-2.088929 -0.05463,-0.617474 -0.138555,-1.231872 -0.177071,-1.850653 -0.0346,-0.771156 -0.06699,-1.543227 -0.03352,-2.315158 0.03002,-0.88522 0.08031,-1.769614 0.09987,-2.655167 0,0 -1.996158,1.017094 -1.996158,1.017094 z" />
    <path
       style="fill:#ff0000;stroke-width:0.149448"
       id="path12"
       d="m 8.9948585,76.597792 c 0.9399155,0.277899 1.8972105,0.489793 2.8550235,0.695063 0.576914,0.117692 1.151917,0.24518 1.731094,0.351465 0.330538,0.04842 0.662773,0.0823 0.992451,0.137067 0.507386,0.09195 1.008607,0.213824 1.511377,0.327555 0.93375,0.210195 1.215822,-0.439096 2.276736,-1.236493 0.07406,-0.05567 -0.01112,-0.66996 -0.02496,-0.757551 -0.111842,-0.406072 -0.311059,-0.766639 -0.615431,-1.056283 -0.14242,-0.128396 -0.297702,-0.240829 -0.451974,-0.354204 -0.083,-0.06424 -0.04099,-0.03024 -0.125766,-0.102333 0,0 -1.911242,1.192972 -1.911242,1.192972 v 0 c 0.08907,0.07523 0.04412,0.03561 0.134557,0.119189 0.151831,0.104567 0.301396,0.212747 0.445934,0.327441 0.281716,0.238752 0.463812,0.55096 0.550351,0.911706 0.01875,0.181853 0.04348,0.281344 0.0069,0.462129 -0.01169,0.05773 -0.114178,0.191567 -0.06122,0.16577 0.629883,-0.306822 1.212587,-0.703104 1.832927,-1.028788 0.0367,-0.01927 -0.03063,0.08897 -0.06961,0.103031 -0.04755,0.01714 -0.09983,-0.01596 -0.149741,-0.02394 -0.506645,-0.09975 -1.008537,-0.220091 -1.512767,-0.330923 -0.327263,-0.07299 -0.660742,-0.109183 -0.994002,-0.144267 -0.59187,-0.08522 -1.17642,-0.212481 -1.765179,-0.316138 -0.942936,-0.18939 -1.88273,-0.401184 -2.79927,-0.695612 0,0 -1.8561644,1.253146 -1.8561644,1.253146 z" />
    <path
       style="fill:#ff0000;stroke-width:0.149448"
       id="path14"
       d="m 15.832341,78.465007 c -0.30002,0.227051 -0.144178,0.111007 -0.467892,0.347638 0,0 2.065847,-0.819524 2.065847,-0.819524 v 0 c 0.329899,-0.244964 0.169645,-0.12396 0.48102,-0.362673 0,0 -2.078975,0.834559 -2.078975,0.834559 z" />
    <path
       style="fill:#ff0000;stroke-width:0.149448"
       id="path16"
       d="m 10.000536,91.970225 c 2.148049,0.03182 4.295687,0.08465 6.4433,0.137503 3.389761,0.124424 6.782555,0.07681 10.173573,0.05058 6.15415,-0.05772 12.30862,-0.03644 18.462229,0.05869 3.047725,0.111467 6.092877,0.276648 9.140917,0.3861 1.992414,0.05106 3.982119,0.163334 5.971365,0.28252 0.815004,0.03118 1.627534,0.132483 2.443362,0.141843 0.653385,-0.03328 1.306256,-0.09298 1.955427,-0.174585 0.505022,-0.04758 0.993975,-0.175395 1.48147,-0.308761 0.327537,-0.09574 0.655808,-0.183372 0.991959,-0.242739 0.286433,-0.0569 0.575414,-0.0943 0.866196,-0.119334 0.850601,-0.0586 -0.375447,0.634386 1.825145,-1.346004 0.04299,-0.0387 -0.113528,-0.0246 -0.167522,-0.04537 -0.19399,-0.07463 -0.347786,-0.176694 -0.528418,-0.282255 -0.744879,-0.478427 -1.414531,-1.063281 -2.09291,-1.629567 -0.302396,-0.250341 -0.15897,-0.13332 -0.42974,-0.351724 0,0 -1.887899,1.190052 -1.887899,1.190052 v 0 c 0.279564,0.207602 0.131513,0.09577 0.443381,0.336515 0.698109,0.555986 1.36714,1.151473 2.103935,1.656403 0.03734,0.0245 0.67995,0.440741 0.7185,0.418578 4.811708,-2.766287 2.561331,-1.371323 1.822344,-1.28375 -0.294782,0.02651 -0.590608,0.0471 -0.88139,0.104447 -0.341173,0.06485 -0.68413,0.116588 -1.013152,0.233351 -0.485643,0.138115 -0.971014,0.283564 -1.47441,0.342098 -0.639501,0.09153 -1.283351,0.142157 -1.927495,0.18896 -0.835146,0.02188 -1.670609,-0.06287 -2.505083,-0.08052 -2.011776,-0.09978 -4.021714,-0.248877 -6.037328,-0.241338 -1.574312,-0.03923 -3.1458,-0.09422 -4.718381,-0.179733 -0.503956,-0.02741 -2.45291,-0.146235 -2.986039,-0.163627 -0.492142,-0.01605 -0.984713,-0.01369 -1.477068,-0.02054 -6.208952,0.06865 -12.418579,0.103335 -18.627844,0.06171 -1.089163,-0.01424 -2.178407,-0.02322 -3.267489,-0.04272 -2.222465,-0.03979 -4.441853,-0.166995 -6.664698,-0.178579 -2.117963,-0.03268 -4.236982,-0.07293 -6.351808,-0.198082 0,0 -1.804429,1.299876 -1.804429,1.299876 z" />
    <path
       style="fill:#ff0000;stroke-width:0.149448"
       id="path18"
       d="m 66.607726,92.395795 c -0.890552,0.777387 -1.680906,1.659627 -2.458235,2.547606 -0.10218,0.11635 -0.204361,0.232701 -0.306541,0.34905 0,0 2.029195,-0.857474 2.029195,-0.857474 v 0 c 0.09776,-0.114251 0.195521,-0.228501 0.293279,-0.342751 0.780656,-0.89849 1.586566,-1.784497 2.519012,-2.529558 0,0 -2.07671,0.833127 -2.07671,0.833127 z" />
    <path
       style="fill:#ff0000;stroke-width:0.149448"
       id="path20"
       d="m 68.255657,84.398207 c 0.294154,1.780814 0.264415,3.590909 0.243442,5.389128 -0.04327,2.036816 -0.04197,4.074739 0.0011,6.111532 0.06988,0.42742 -0.127926,1.301817 0.20435,1.663674 0.430632,0.468973 1.258848,0.594949 1.806482,0.677114 0.677786,0.101694 1.364056,0.135246 2.046079,0.20287 5.62874,0.319472 11.267675,0.427641 16.903616,0.54784 1.744576,0.03413 3.489535,0.09166 5.233337,0.0093 0.728306,-0.03281 1.451229,-0.128777 2.177078,-0.190107 0.431688,-0.03145 0.864653,-0.03149 1.296969,-0.04836 0.839953,-0.03275 0.432813,-0.0033 2.07689,-1.164205 0.0608,-0.04293 -0.021,-0.147409 -0.034,-0.22069 -0.0171,-0.09647 -0.038,-0.192235 -0.0565,-0.288455 -0.0301,-0.156563 -0.14071,-0.745487 -0.16381,-0.868285 -0.244979,-1.389089 -0.580525,-2.759564 -0.9573,-4.118104 -0.344273,-1.200979 -0.706796,-2.397226 -1.006757,-3.61028 -0.193098,-0.833705 -0.318827,-1.680679 -0.474679,-2.521645 -0.106762,-0.555153 -0.177893,-1.116215 -0.281107,-1.671938 -0.01356,-0.06221 -0.03897,-0.234129 -0.09583,-0.283737 -0.07428,-0.06482 -0.162432,-0.118149 -0.256784,-0.146721 -0.468935,-0.142 -1.395987,-0.08322 -1.874563,-0.08604 -1.58194,0.0068 -3.166037,0.0074 -4.744695,0.119418 -1.377375,0.146424 -2.754016,0.290111 -4.136599,0.377352 -1.22541,0.08641 -2.450407,0.140646 -3.677861,0.08374 -2.144034,-0.185546 -4.2728,-0.515096 -6.388586,-0.902993 -0.988355,-0.186792 -1.968373,-0.413953 -2.955016,-0.6091 -0.149871,-0.02735 -0.29982,-0.05688 -0.4516,-0.07175 -0.102186,-0.01556 -0.213619,0.02103 -0.313574,0.04627 -0.08242,0.02156 -0.164483,0.0448 -0.248368,0.06004 -0.07285,0.01107 -0.144532,0.007 -0.217776,0.01656 -0.110399,0.0075 -0.219375,0.02759 -0.32935,0.03961 -0.09723,-0.0043 -0.188252,0.03155 -0.285117,0.04013 -0.360066,0.06455 -0.721245,0.119444 -1.083785,0.168408 -0.07872,0.01074 -0.157434,0.02149 -0.236151,0.03222 0,0 -1.787368,1.337254 -1.787368,1.337254 v 0 c 0.07958,-0.01158 0.159162,-0.02316 0.238737,-0.03474 0.354819,-0.05066 0.711773,-0.08574 1.064593,-0.148487 0.09111,-0.02182 0.189172,-0.0036 0.272696,-0.05295 0.111133,-0.0057 0.222893,-0.01296 0.331694,-0.03768 0.07346,-0.0041 0.141053,-0.025 0.214822,-0.01623 0.09245,-2.99e-4 0.184269,-0.0089 0.273927,-0.03294 0.09131,-0.02352 0.199933,-0.04068 0.278661,-0.08564 0.148859,-0.02225 0.299091,0.0052 0.446996,0.02281 1.019766,0.152496 2.028828,0.367526 3.044318,0.544963 2.114097,0.371102 4.236182,0.700004 6.368472,0.948455 1.231171,0.08826 2.459489,0.03962 3.689513,-0.0594 1.380149,-0.08794 2.756208,-0.217578 4.130748,-0.369694 1.581036,-0.127589 3.167635,-0.174718 4.75376,-0.149546 0.571539,0.01012 0.845376,0.0088 1.392033,0.03884 0.1253,0.0069 0.250165,0.02022 0.375346,0.02895 0.05174,0.0036 0.108614,-0.0143 0.155389,0.0081 0.03632,0.01741 0.07613,0.227754 0.07648,0.229191 0.113076,0.551495 0.198627,1.107727 0.295368,1.662211 0.158129,0.841904 0.324996,1.682755 0.50635,2.519873 0.306604,1.210705 0.691704,2.399596 1.038548,3.599108 0.373803,1.356121 0.697052,2.726696 0.913326,4.117667 0.02836,0.176884 0.110235,0.674738 0.135523,0.876555 0.01096,0.0873 0.02847,0.174933 0.02434,0.262813 -0.0017,0.03183 -0.0691,0.101135 -0.04084,0.08642 2.077316,-1.081457 2.615696,-1.114096 1.810837,-1.046904 -0.43819,0.03052 -0.876894,0.04216 -1.315852,0.05699 -0.739704,0.04645 -1.470388,0.181167 -2.211098,0.220871 -1.789249,0.103736 -3.582848,0.08051 -5.37426,0.109736 -5.63414,0.008 -11.277102,-0.05866 -16.894392,-0.529377 -0.647234,-0.08169 -1.298433,-0.13648 -1.941696,-0.245085 -0.297029,-0.05015 -1.281639,-0.21726 -1.610825,-0.55291 -0.304853,-0.310839 -0.131282,-1.202581 -0.21515,-1.574419 -0.07206,-2.026749 -0.07781,-4.055743 -0.03705,-6.083301 0.0257,-1.824804 0.05276,-3.654003 -0.15357,-5.470893 0,0 -1.969887,1.036632 -1.969887,1.036632 z" />
    <path
       style="fill:#ff0000;stroke-width:0.149448"
       id="path22"
       d="m 4.2277187,105.39343 c 0.5005589,0.89522 0.7199923,1.90211 0.9215517,2.89733 0.1980076,1.09331 0.3980724,2.18674 0.6754798,3.26314 0.1428259,0.59771 0.4319047,1.1323 0.7720104,1.63758 0.036482,0.0369 0.064464,0.0848 0.1094469,0.11061 0.053887,0.0309 0.1245927,0.0859 0.1782476,0.0545 0.6999711,-0.40882 1.3880961,-0.84453 2.0274863,-1.3428 0.097061,-0.0756 0.09039,-0.2289 0.1360159,-0.34318 0.1011683,-0.25341 0.2798147,-0.69581 0.3781255,-0.93966 0.4163915,-1.02644 0.8250052,-2.05611 1.2828812,-3.06493 0.276057,-0.57812 0.515141,-1.17269 0.766307,-1.76173 0.09878,-0.18997 0.126091,-0.39937 0.160225,-0.60707 0.04207,-0.95302 1.059305,-0.95994 -1.8239758,0.84445 0.3838778,0.65543 0.6026338,1.39315 0.8168298,2.11741 0.199382,0.67093 0.371581,1.34935 0.536171,2.02948 0.07113,0.33265 0.165956,0.65946 0.256896,0.98704 0.07719,0.32185 0.193397,0.63119 0.326457,0.93351 0.09327,0.12719 0.118164,0.39298 0.227822,0.50345 0.656951,0.66185 2.104807,-1.1115 2.191837,-1.16599 0.450586,-0.80986 0.871298,-1.63417 1.271284,-2.46992 0.395685,-0.80208 0.750383,-1.62285 1.062364,-2.46079 0.270646,-0.73606 0.487098,-1.49012 0.709948,-2.24153 0.06351,-0.34739 0.300668,-0.73712 0.187164,-1.096 0,0 -1.98286,1.07392 -1.98286,1.07392 v 0 c 0.03252,0.32826 -0.160469,0.65548 -0.206764,0.97193 -0.21398,0.74938 -0.440792,1.4953 -0.714682,2.22536 -0.312196,0.82823 -0.659657,1.64216 -1.053781,2.43509 -0.403624,0.83587 -0.816024,1.67353 -1.329505,2.4484 0.60468,-0.32647 1.189512,-0.69272 1.81404,-0.9794 0.0437,-0.0201 0.03551,0.10648 0.0056,0.14413 -0.02127,0.0268 -0.0327,-0.0601 -0.04805,-0.0907 -0.06536,-0.13029 -0.12057,-0.26516 -0.178909,-0.39864 -0.128433,-0.29245 -0.238255,-0.59228 -0.312942,-0.9034 -0.08828,-0.32616 -0.178586,-0.65178 -0.263166,-0.97893 -0.180537,-0.67665 -0.366424,-1.3519 -0.566256,-2.02316 -0.224838,-0.75306 -0.45281,-1.51557 -0.823476,-2.21192 -2.2912885,1.03228 -1.9642149,0.2291 -2.1280121,1.29605 -0.033467,0.19196 -0.085553,0.377 -0.1665734,0.55525 -0.2290425,0.58567 -0.4752846,1.16432 -0.7320536,1.73838 -0.4439577,1.01475 -0.8525995,2.04404 -1.2744941,3.06806 -0.08453,0.20137 -0.3034273,0.73019 -0.4036443,0.94241 -0.051341,0.10872 -0.2778783,0.3644 -0.166062,0.3202 0.625397,-0.24718 1.1651326,-0.67586 1.7762082,-0.95658 0.047972,-0.022 0.00844,0.12089 -0.031705,0.15517 -0.026034,0.0222 -0.058676,-0.0353 -0.088013,-0.0529 -0.3430537,-0.47316 -0.6110959,-0.98784 -0.7556319,-1.55796 -0.2954194,-1.06374 -0.50671,-2.1473 -0.7005076,-3.23366 -0.2016111,-1.022 -0.4294136,-2.04418 -0.8953952,-2.98416 0,0 -1.9439572,1.11213 -1.9439572,1.11213 z" />
    <path
       style="fill:#ff0000;stroke-width:0.149448"
       id="path24"
       d="m 6.7289548,102.59228 c 0.7562133,-0.004 1.5121589,-0.0328 2.2681596,-0.0514 0.6871208,-0.022 1.3745456,-0.0272 2.0619636,-0.0248 0.447327,0.01 0.894285,-1.5e-4 1.341168,-0.0196 2.375249,-0.28899 2.394231,-0.97095 1.871664,-2.24485 -0.141047,-0.318967 -0.311289,-0.624667 -0.535845,-0.892305 0,0 -1.926226,1.165525 -1.926226,1.165525 v 0 c 0.224988,0.23424 0.380325,0.52203 0.517452,0.81421 0.06896,0.17097 0.134266,0.311 0.172526,0.49257 0.01434,0.0681 0.02712,0.13813 0.02195,0.20749 -0.0027,0.036 -0.07676,0.11516 -0.04478,0.0985 0.738684,-0.38486 2.528411,-1.43821 1.72735,-0.96721 -0.448816,0.0303 -0.897501,0.0412 -1.347344,0.0385 -0.688325,0.007 -1.376788,0.003 -2.064968,0.0191 -0.747229,0.0291 -1.4951043,0.0657 -2.2430459,0.0537 0,0 -1.8200272,1.31045 -1.8200272,1.31045 z" />
    <path
       style="fill:#ff0000;stroke-width:0.149448"
       id="path26"
       d="m 12.853564,102.06241 c -0.181146,0.29854 -0.08637,0.14792 -0.284902,0.45151 0,0 2.039081,-0.89524 2.039081,-0.89524 v 0 c 0.200388,-0.31152 0.101663,-0.15755 0.296208,-0.46187 0,0 -2.050387,0.9056 -2.050387,0.9056 z" />
    <path
       style="fill:#ff0000;stroke-width:0.149448"
       id="path28"
       d="m 12.091893,103.11114 c -0.21247,0.28678 -0.450621,0.55324 -0.681822,0.82477 0,0 2.037327,-0.8634 2.037327,-0.8634 v 0 c 0.236878,-0.2798 0.477855,-0.55673 0.697162,-0.8508 0,0 -2.052667,0.88943 -2.052667,0.88943 z" />
    <path
       style="fill:#ff0000;stroke-width:0.149448"
       id="path30"
       d="m 18.796315,104.83606 c -0.582963,0.66978 -1.167873,1.3367 -1.682233,2.06144 -0.345299,0.5398 -0.613265,1.11673 -0.72998,1.74745 -0.05316,0.68161 -0.03493,1.3692 0.0016,2.05143 0.04322,0.51967 0.121539,1.03678 0.32079,1.52051 0.117254,0.25698 0.249587,0.50678 0.384127,0.75502 0,0 1.941029,-1.11604 1.941029,-1.11604 v 0 c -0.134776,-0.23809 -0.263853,-0.47993 -0.369878,-0.73247 -0.185209,-0.46031 -0.274178,-0.94694 -0.308974,-1.44171 -0.03098,-0.6677 -0.04788,-1.34351 0.03792,-2.00763 0.140019,-0.59676 0.404795,-1.14904 0.751155,-1.65499 0.527555,-0.72076 1.114537,-1.39244 1.710304,-2.05732 0,0 -2.055847,0.87431 -2.055847,0.87431 z" />
    <path
       style="fill:#ff0000;stroke-width:0.149448"
       id="path32"
       d="m 22.992463,105.91741 c -0.921956,0.52689 -1.194722,0.68144 -2.541048,1.48095 -0.35898,0.21318 -0.686383,0.45269 -0.953449,0.77342 -0.189933,0.29811 -0.315273,0.52735 -0.09763,0.84044 0.191586,0.19453 0.455282,0.27676 0.701348,0.37881 0.31363,0.13191 0.640861,0.23035 0.924586,0.42149 0.266452,0.2239 0.38615,0.5239 0.38217,0.86541 -0.04489,0.40777 -0.292721,0.74145 -0.537474,1.05542 -0.532053,0.66008 -1.665324,1.19009 1.436075,-0.70974 0.04608,-0.0282 -0.09861,0.0451 -0.150458,0.0604 -0.05411,0.0159 -0.110674,0.0218 -0.166012,0.0327 0,0 -1.796133,1.3401 -1.796133,1.3401 v 0 c 1.078457,-0.0691 2.10298,-0.74126 2.729159,-1.61017 0.249766,-0.35927 0.476233,-0.74175 0.47733,-1.1936 -0.03232,-0.40364 -0.179864,-0.7606 -0.482844,-1.03986 -0.282977,-0.22258 -0.61384,-0.3395 -0.94876,-0.46533 -0.210572,-0.0957 -0.434805,-0.16524 -0.632406,-0.28612 -0.145238,-0.15392 0.142895,-0.43728 0.22048,-0.55292 0.199478,-0.19461 0.407624,-0.35228 0.640737,-0.50621 0.104324,-0.0689 0.425091,-0.26302 0.315698,-0.20249 -0.423855,0.23451 -2.313604,1.31772 -1.260648,0.72293 0,0 1.739277,-1.40558 1.739277,-1.40558 z" />
    <path
       style="fill:#ff0000;stroke-width:0.149448"
       id="path34"
       d="m 21.867577,104.36414 c 0.593735,0.33775 1.180541,0.68824 1.738866,1.08212 0.501829,0.35299 0.912263,0.80072 1.229402,1.32301 0.295408,0.51934 0.423817,1.10202 0.514918,1.68615 0.08029,0.54631 0.118936,1.09745 0.18468,1.64554 0.06975,0.58387 0.156862,1.16416 0.184507,1.75202 -0.01564,0.34618 0.0082,0.76585 -0.112394,1.09856 -0.0602,0.16607 -0.164964,0.26264 -0.277291,0.3954 -0.311943,0.32421 -0.654149,0.6242 -1.044711,0.85001 1.857614,-1.07881 2.439056,-1.43677 1.772279,-1.0271 0,0 -1.766754,1.39962 -1.766754,1.39962 v 0 c 0.819719,-0.24935 0.05545,-0.0103 2.088311,-1.18756 0.369163,-0.2623 0.710425,-0.56546 0.994703,-0.91929 0.05236,-0.083 0.113742,-0.16098 0.157072,-0.24904 0.204837,-0.41633 0.144155,-0.93336 0.162346,-1.37918 -0.03391,-0.59229 -0.112913,-1.17928 -0.185892,-1.76777 -0.06449,-0.55171 -0.101444,-1.1068 -0.18916,-1.65556 -0.11001,-0.60776 -0.250398,-1.21628 -0.556004,-1.7597 -0.332008,-0.54784 -0.764662,-1.0178 -1.284973,-1.39469 -0.557003,-0.40226 -1.152065,-0.74419 -1.732122,-1.11147 0,0 -1.877783,1.21893 -1.877783,1.21893 z" />
    <path
       style="fill:#ff0000;stroke-width:0.149448"
       id="path36"
       d="m 29.039319,109.46629 c 0.935072,-0.0137 1.870369,0.0136 2.805203,0.0342 0.602126,0.0145 1.204419,0.0194 1.806629,0.0291 0.634982,0.02 1.267442,0.0917 1.900235,0.14587 0.47317,0.041 0.94808,0.065 1.415255,0.15432 0.336095,0.0669 0.672807,0.13072 1.009625,0.1939 0.346464,0.0657 0.69093,0.13751 1.042643,0.16713 1.049322,0.0747 1.027153,-0.20472 2.428638,-1.19552 0.03708,-0.0262 -0.05261,-0.41792 -0.0527,-0.41837 -0.21117,-0.71302 -0.610293,-1.34779 -0.995055,-1.97716 -0.221788,-0.36397 -0.471794,-0.70911 -0.723982,-1.05224 0,0 -1.921411,1.14561 -1.921411,1.14561 v 0 c 0.267918,0.32143 0.518437,0.65702 0.736086,1.01502 0.366728,0.60368 0.757798,1.21723 0.924692,1.9115 0.0032,0.0578 0.01792,0.11615 0.0097,0.17349 -0.0046,0.0326 -0.07601,0.10217 -0.04693,0.0868 0.629739,-0.3331 1.24131,-0.69948 1.862986,-1.0474 0.03088,-0.0173 -0.0562,0.0469 -0.09053,0.0555 -0.03705,0.009 -0.282741,-0.002 -0.308946,-0.003 -0.348472,-0.0177 -0.691635,-0.0712 -1.033255,-0.14254 -0.334798,-0.0601 -0.666478,-0.13544 -1.001004,-0.19685 -0.481129,-0.0957 -0.967454,-0.13135 -1.457197,-0.15485 -0.629922,-0.05 -1.256946,-0.1264 -1.886518,-0.17724 -0.611554,0.005 -1.223093,0.001 -1.834628,-0.005 -0.92688,-0.0109 -1.853418,-0.0349 -2.780052,-0.057 0,0 -1.809503,1.31468 -1.809503,1.31468 z" />
    <path
       style="fill:#ff0000;stroke-width:0.149448"
       id="path38"
       d="m 38.295586,110.49927 c -0.406892,0.35434 -0.829473,0.68961 -1.252539,1.0242 0,0 2.026389,-0.81235 2.026389,-0.81235 v 0 c 0.434396,-0.3463 0.868357,-0.69315 1.293261,-1.05112 0,0 -2.067111,0.83927 -2.067111,0.83927 z" />
    <path
       style="fill:#ff0000;stroke-width:0.149448"
       id="path40"
       d="m 40.192789,104.31977 c 0.09442,1.12806 0.111253,2.26153 0.11447,3.39303 -0.0031,1.4078 -0.01608,2.81556 -0.07324,4.2223 -0.02498,0.66084 -0.120921,1.31697 -0.110843,1.97883 0.01125,0.0573 0.02644,0.48968 0.07059,0.51804 0.409014,0.26276 0.670024,0.18026 1.193367,0.20874 3.250166,0.0116 6.500327,-0.0232 9.750599,-0.0219 1.790986,-0.002 3.578821,0.11614 5.363096,0.25937 0.997649,0.0215 1.996532,0.2501 2.994952,0.18568 0.95408,-0.29026 0.651803,-0.17624 2.280331,-1.3621 0.07568,-0.0551 0.06623,-0.17552 0.08948,-0.26621 0.108083,-0.42146 0.118544,-0.8623 0.143951,-1.29374 0.02739,-1.42649 -0.131982,-2.84759 -0.343398,-4.25584 -0.180355,-1.12004 -0.44568,-2.22377 -0.685993,-3.33186 -0.162495,-0.60828 -0.235235,-1.23421 -0.352458,-1.8514 -0.02169,-0.0457 -0.0266,-0.10428 -0.06513,-0.13708 -0.296973,-0.2529 -0.823177,-0.077 -1.146839,-0.024 -0.494771,0.0811 -0.988485,0.16848 -1.482798,0.25232 -1.180091,0.19552 -2.36881,0.33044 -3.553833,0.49117 -1.093335,0.14998 -2.177807,0.35898 -3.261893,0.56417 -0.792713,0.1672 -1.596125,0.25981 -2.403694,0.31155 -0.487062,0.0258 -0.974804,0.034 -1.462474,0.0342 -0.719186,0.003 -1.436879,-0.0585 -2.153524,-0.11216 -0.661463,-0.0482 -1.322203,-0.1051 -1.981389,-0.17816 -0.199753,-0.0269 -0.401267,-0.0366 -0.601115,-0.0621 -0.01872,-0.003 -0.03744,-0.005 -0.05615,-0.008 0,0 -1.840899,1.30571 -1.840899,1.30571 v 0 c 0.01845,0.002 0.0369,0.003 0.05534,0.005 0.20608,0.0259 0.412071,0.0431 0.619444,0.0564 0.67239,0.0595 1.344997,0.11612 2.018772,0.15804 0.708648,0.0536 1.417105,0.13196 2.127415,0.15222 0.498092,-0.002 0.996141,-0.0104 1.493448,-0.0411 0.813815,-0.0455 1.62534,-0.12175 2.424368,-0.28997 1.08123,-0.22041 2.164866,-0.43773 3.259694,-0.57928 1.198852,-0.15902 2.396146,-0.3299 3.591833,-0.51121 0.654039,-0.10598 1.308265,-0.21061 1.962858,-0.31312 0.106134,-0.0166 0.213792,-0.0252 0.318497,-0.0493 0.04214,-0.01 0.07668,-0.0595 0.119075,-0.0512 0.03078,0.006 0.02937,0.0555 0.04406,0.0832 0.138122,0.6107 0.220973,1.23309 0.385191,1.83816 0.256806,1.09625 0.530101,2.19012 0.707463,3.30296 0.216652,1.39556 0.379016,2.80698 0.301232,4.22178 -0.03773,0.40752 -0.04767,0.85472 -0.208795,1.23971 -0.03067,0.0733 -0.194093,0.23807 -0.122109,0.20454 1.131956,-0.5272 2.386477,-1.39898 1.564531,-0.83392 -0.399571,0.0732 -0.755915,0.0478 -1.161779,0.0168 -0.618924,-0.0473 -1.237909,-0.0937 -1.857533,-0.13113 -1.807323,-0.12567 -3.616808,-0.26913 -5.430146,-0.23306 -3.228923,0.0608 -6.461091,0.11913 -9.68918,-0.003 -0.249277,-0.0181 -0.497956,-0.0489 -0.747831,-0.0544 -0.07322,-0.002 -0.14498,0.0457 -0.217178,0.0334 -0.01645,-0.003 -0.06313,-0.4295 -0.05932,-0.46779 -0.01002,-0.6479 0.0464,-1.294 0.06141,-1.94153 0.03799,-1.40851 0.0566,-2.81738 0.06423,-4.22637 -4.48e-4,-1.14633 -0.02693,-2.29229 -0.06368,-3.43801 0,0 -1.986479,1.03166 -1.986479,1.03166 z" />
    <path
       style="fill:#ff0000;stroke-width:0.149448"
       id="path42"
       d="m 61.085008,109.07771 c 3.699731,0.0208 7.400021,-0.0545 11.099905,-0.0812 1.745744,-0.008 3.491529,-0.0212 5.237301,-0.0177 0.943704,-0.0473 0.518495,0.004 2.214505,-1.22111 0.06928,-0.05 0.0075,-0.17084 0.0068,-0.2563 -0.0034,-0.39331 -0.03773,-0.78817 -0.059,-1.1807 -0.0056,-0.81253 -0.09305,-1.61529 -0.186795,-2.42083 -0.101943,-0.80339 -0.155185,-1.61161 -0.182535,-2.42064 -0.04152,-0.60179 -0.02644,-1.20307 0.0011,-1.804941 0.05742,-0.587978 0.07925,-1.177665 0.07293,-1.768276 -0.0023,-0.235737 -0.02361,-0.50884 -0.293595,-0.571209 -1.374043,0.151522 -2.223739,1.384505 -3.127656,2.255196 -0.526051,0.46813 -1.001301,0.98674 -1.481775,1.50033 -0.217375,0.22612 -0.114093,0.12035 -0.309309,0.31782 0,0 2.066672,-0.86057 2.066672,-0.86057 v 0 c 0.184597,-0.19681 0.08657,-0.0916 0.29381,-0.31577 0.472194,-0.512219 0.960836,-1.007645 1.469875,-1.483469 0.288009,-0.284137 0.563625,-0.580797 0.852345,-0.863992 0.05868,-0.05755 0.254497,-0.204864 0.181779,-0.166574 -1.688492,0.889051 -2.301157,1.525086 -1.754071,0.966617 0.08076,-0.06732 0.0086,0.0068 0.05202,-0.08796 0.03824,-0.08356 0.06274,0.402933 0.06016,0.327878 0.01463,0.582791 -0.01841,1.16416 -0.05978,1.74538 -0.02954,0.60902 -0.05883,1.21881 2.8e-5,1.82737 0.04683,0.8105 0.107445,1.62022 0.202226,2.42671 0.08535,0.80038 0.168363,1.60006 0.184461,2.40581 0.0087,0.23254 0.02683,0.62492 0.02299,0.86475 -0.0017,0.0959 0.0011,0.19295 -0.01689,0.28717 -0.01,0.0529 -0.113992,0.17113 -0.06543,0.1478 2.338132,-1.12352 2.479073,-1.13456 1.650185,-0.95984 -1.807731,0.0669 -3.616151,0.11524 -5.42465,0.15557 -3.634051,0.0665 -7.275094,0.13969 -10.906666,-0.0385 0,0 -1.801246,1.29118 -1.801246,1.29118 z" />
    <path
       style="fill:#ff0000;stroke-width:0.149448"
       id="path44"
       d="m 78.543783,99.595684 c 0.741737,0.474706 1.420749,1.039606 2.100721,1.597196 0.274594,0.223 0.537558,0.45916 0.796472,0.69995 0,0 1.889723,-1.1697 1.889723,-1.1697 v 0 c -0.266991,-0.24002 -0.536179,-0.47756 -0.814608,-0.70437 -0.689919,-0.551112 -1.376568,-1.107482 -2.089685,-1.628472 0,0 -1.882623,1.205396 -1.882623,1.205396 z" />
    <path
       style="fill:#ff0000;stroke-width:0.149448"
       id="path50"
       d="m 82.875468,90.707399 c -0.316861,-0.186904 -0.753249,-0.33689 -0.957616,-0.664888 0.0065,-0.0073 0.0098,-0.02104 0.01954,-0.02184 0.04377,-0.0036 0.165482,0.0088 0.12792,0.03156 -0.618291,0.374593 -1.25534,0.717333 -1.880195,1.080874 -0.04507,0.02624 0.101927,-0.02574 0.154073,-0.02767 0.156982,0.0097 0.292014,0.0798 0.406525,0.183365 0.0122,0.01242 0.03259,0.02032 0.03666,0.03726 0.0023,0.0087 -0.01983,-4.48e-4 -0.02626,0.0057 -0.08492,0.08281 -0.137314,0.195915 -0.227169,0.279185 -0.616862,0.444114 -1.65154,1.055991 1.634182,-0.938512 0.02819,-0.0171 -0.06499,0.01405 -0.09794,0.01348 -0.037,-6.21e-4 -0.07311,-0.01139 -0.10967,-0.01709 -0.235066,-0.0818 -0.430401,-0.237127 -0.579345,-0.43387 -0.07022,-0.17527 0.05383,-0.372804 0.162732,-0.508385 0.786005,-0.155781 -0.05496,1.49e-4 -1.711295,1.046424 -0.04699,0.0297 0.108919,-0.02399 0.164314,-0.02896 0.199915,-0.01795 0.392381,0.0171 0.58758,0.05375 0.317251,0.07869 0.617359,0.213097 0.906735,0.362941 0.154536,0.06712 0.231586,0.188302 0.284738,0.341682 0.0034,0.01884 0.01858,0.03931 0.01022,0.05654 -0.02197,0.04523 -0.453599,0.254029 -0.520093,0.29179 3.237349,-2.120468 2.229817,-1.156199 1.486391,-0.902272 -0.20056,0.05049 -0.403243,-0.01227 -0.598838,-0.0572 -0.454819,-0.06637 -0.835626,-0.263078 -1.201556,-0.531827 -0.391974,-0.335291 -0.468985,-0.297809 -0.122893,-0.69428 0.154027,-0.147944 0.313201,-0.294802 0.496437,-0.406663 0.0488,-0.02978 0.201113,-0.108531 0.151932,-0.07943 -1.78834,1.058359 -2.441922,1.210123 -1.622484,1.001073 0.390014,-0.02192 0.751249,0.145113 1.09071,0.318028 0.257993,0.149094 0.493263,0.346163 0.697855,0.562851 0.143776,0.182937 0.207733,0.415852 0.146645,0.641067 -0.135805,0.288292 -0.321623,0.55329 -0.553785,0.771789 -0.591602,0.4374 -1.81234,1.109883 1.655832,-0.949674 0.05586,-0.03316 -0.126367,0.03074 -0.19055,0.04067 -0.249899,0.0067 -0.493387,-0.06102 -0.728148,-0.139705 -0.159845,-0.06958 -0.339799,-0.11332 -0.477074,-0.225122 0,0 -1.9177,1.184302 -1.9177,1.184302 v 0 c 0.149153,0.151098 0.337568,0.221091 0.534987,0.293814 0.248758,0.100353 0.503385,0.179209 0.770523,0.213011 0.929786,0.08561 1.815232,-0.603386 2.427332,-1.285975 0.215776,-0.265882 0.415133,-0.557549 0.493884,-0.895501 0.0135,-0.293233 -0.0569,-0.577451 -0.239772,-0.813399 -0.2125,-0.24311 -0.482394,-0.445322 -0.747572,-0.626452 -0.368895,-0.193659 -0.748799,-0.370048 -1.165683,-0.429658 -0.970054,0.01124 -0.166855,-0.02634 -2.26547,1.147556 -0.242341,0.135558 -0.432016,0.361611 -0.607395,0.569832 -0.293358,0.524859 -0.128909,0.657324 0.287015,0.995326 0.378932,0.285504 0.762795,0.542101 1.24293,0.612125 0.210225,0.05381 0.419257,0.129469 0.637315,0.137258 0.913768,-0.0011 1.583143,-1.707089 2.413855,-1.260642 0.226684,-0.14607 0.501628,-0.32396 0.3847,-0.634422 -0.07765,-0.191536 -0.181039,-0.381222 -0.371911,-0.479482 -0.304181,-0.162346 -0.625459,-0.294283 -0.952194,-0.403496 -1.068026,-0.277749 -2.249643,-0.05062 -2.937139,1.113855 -0.109902,0.238582 -0.172944,0.501413 -0.03801,0.744978 0.174481,0.234953 0.397967,0.417959 0.658327,0.552976 0.914976,0.383141 1.891836,-0.495317 2.500615,-1.20695 0.11598,-0.182503 0.247109,-0.439737 0.06347,-0.626275 -0.145069,-0.136231 -0.296148,-0.246312 -0.490715,-0.303493 -0.886954,-0.183847 -2.467871,0.438735 -2.196819,1.380673 0.244917,0.354111 0.671409,0.540508 1.027748,0.760762 0,0 1.871598,-1.233397 1.871598,-1.233397 z" />
    <path
       style="fill:#ff0000;stroke-width:0.149448"
       id="path52"
       d="m 99.931412,78.9419 c -0.218318,0.951172 -0.387213,1.910024 -0.496572,2.879577 -0.07995,0.872605 -0.08417,1.749073 -0.06162,2.624223 0.04152,0.497834 0.145244,0.988164 0.200966,1.485 -1.41e-4,0.05679 0.0092,0.114408 -4.46e-4,0.170386 -0.004,0.02222 -0.02553,0.03714 -0.03835,0.05571 0.64315,-0.406357 1.33042,-0.750099 1.92945,-1.219069 0.0675,-0.05288 -0.0366,-0.167712 -0.0498,-0.252444 -0.0376,-0.238678 -0.0468,-0.400772 -0.0672,-0.641673 -0.0857,-0.646468 0.18081,-1.187894 0.49969,-1.727876 0.48658,-0.389106 1.99845,-1.58456 -1.479,0.867227 -0.0715,0.05041 0.17385,-0.03433 0.26104,-0.02719 0.34463,0.02824 0.65295,0.232694 0.94021,0.402933 0.40086,0.258099 0.79056,0.53607 1.14854,0.851473 0.194,0.174438 0.3389,0.388263 0.46342,0.615247 0.18193,0.344835 0.25892,0.733471 0.37103,1.104496 0.0342,0.11826 0.0854,0.227083 0.0595,0.349584 0,0 2.00626,-1.02391 2.00626,-1.02391 v 0 c -0.0189,-0.138059 -0.0542,-0.269566 -0.10438,-0.400174 -0.12124,-0.384425 -0.19545,-0.790646 -0.38499,-1.148845 -0.13732,-0.249521 -0.29337,-0.487278 -0.5058,-0.680551 -0.3701,-0.325385 -0.78167,-0.599308 -1.19314,-0.869113 -0.31407,-0.196837 -0.632,-0.403936 -0.99461,-0.502246 -1.00094,-0.271375 -2.02227,0.577561 -2.617989,1.36823 -0.318307,0.60208 -0.536908,1.150538 -0.439032,1.846228 0.0076,0.0816 0.08595,0.960696 0.127475,0.949813 1.946166,-0.51003 2.128556,-0.165354 2.044396,-1.12637 -0.0674,-0.488153 -0.15183,-0.974597 -0.19753,-1.465304 -0.0452,-0.859101 -0.0397,-1.720433 0.045,-2.577349 0.11796,-0.972169 0.28724,-1.936756 0.55358,-2.880459 0,0 -2.020014,0.972442 -2.020014,0.972442 z" />
    <path
       style="fill:#ff0000;stroke-width:0.149448"
       id="path54"
       d="m 99.675447,77.671733 c 0.690153,-0.0102 1.380373,0.01284 2.069653,0.04558 0.5417,0.02564 1.08144,0.07417 1.6158,0.166911 0.41576,0.08063 0.83019,0.168057 1.24654,0.245595 0.69237,-0.381727 1.42536,-0.697623 2.07712,-1.145181 0.0771,-0.05295 0.007,-0.187415 -5.6e-4,-0.280607 -0.0324,-0.376762 -0.17271,-0.734202 -0.32522,-1.075739 -0.11256,-0.247384 -0.29101,-0.447654 -0.4713,-0.646365 0,0 -1.92163,1.1666 -1.92163,1.1666 v 0 c 0.16703,0.179034 0.3409,0.353239 0.44835,0.577455 0.10637,0.229668 0.20891,0.462891 0.24726,0.71587 0.0121,0.07981 0.0255,0.162259 0.0121,0.241859 -0.008,0.04931 -0.0498,0.0867 -0.0747,0.13005 0.61385,-0.32306 1.2277,-0.646119 1.84155,-0.969179 -0.42001,-0.06367 -0.83314,-0.162529 -1.25067,-0.240119 -0.54279,-0.09965 -1.08807,-0.161044 -1.63983,-0.18489 -0.68797,-0.03414 -1.37628,-0.04154 -2.06466,-0.06562 0,0 -1.809525,1.317783 -1.809525,1.317783 z" />
    <path
       style="fill:#ff0000;stroke-width:0.149448"
       id="path56"
       d="m 105.41008,77.62778 c -0.25496,0.293069 -0.51623,0.580527 -0.7742,0.870935 0,0 2.03616,-0.857152 2.03616,-0.857152 v 0 c 0.26432,-0.295662 0.52971,-0.59035 0.8013,-0.879394 0,0 -2.06326,0.865611 -2.06326,0.865611 z" />
    <path
       style="fill:#ff0000;stroke-width:0.149448"
       id="path58"
       d="m 107.63973,83.015122 c 0.1308,0.105545 0.64182,0.333662 0.67551,0.506185 0.005,0.02638 -0.10682,0.07305 -0.17446,0.105752 -0.75695,0.359859 -0.18896,0.09501 1.61289,-0.966139 0,0 -1.75344,1.394476 -1.75344,1.394476 v 0 c 2.13275,-1.214719 1.52393,-0.614516 2.20437,-1.311069 0.022,-0.05806 0.0604,-0.112342 0.066,-0.174183 0.0336,-0.3732 -0.51545,-0.584431 -0.75336,-0.780096 0,0 -1.87752,1.225074 -1.87752,1.225074 z" />
    <path
       style="fill:#ff0000;stroke-width:0.149448"
       id="path60"
       d="m 109.95264,82.542156 c -0.30028,0.03728 -0.82077,0.149955 -1.02086,-0.173756 -0.0285,-0.04608 -0.0338,-0.102944 -0.0507,-0.154417 -10e-4,-0.247871 0.16178,-0.768318 0.36957,-0.921324 0.0443,-0.03261 0.10362,-0.03691 0.15543,-0.05536 -2.94102,1.706443 -2.15514,0.882445 -1.27339,1.07538 0.2319,0.05074 0.43493,0.150879 0.64034,0.264971 0.18652,0.134664 0.46372,0.29028 0.26074,0.535111 -0.22591,0.211422 -0.43858,0.43817 -0.69429,0.614339 -0.68546,0.379176 -0.30079,0.16701 1.78525,-1.039344 0.0199,-0.01154 -0.0355,0.03142 -0.0575,0.03846 -0.10976,0.03525 -0.23376,-0.03998 -0.32839,-0.08121 -0.11915,-0.05588 -0.23293,-0.121715 -0.34578,-0.189102 0,0 -1.88831,1.220668 -1.88831,1.220668 v 0 c 0.1177,0.07221 0.23633,0.142934 0.36052,0.203665 1.00372,0.540075 1.22287,0.173048 2.56438,-0.988427 0.24315,-0.212177 0.49275,-0.436183 0.63969,-0.72762 0.0613,-0.409689 -0.0978,-0.576368 -0.42206,-0.804295 -0.30081,-0.178068 -0.60263,-0.319084 -0.94864,-0.385657 -0.0821,-0.01579 -0.1721,-0.07021 -0.24816,-0.0356 -0.7302,0.332299 -1.42075,0.745583 -2.13113,1.118375 -0.30259,0.335765 -0.45892,0.792962 -0.39343,1.243936 0.0314,0.07614 0.0507,0.158443 0.0941,0.228433 0.24482,0.394826 0.73502,0.398034 1.14426,0.36509 0,0 1.78836,-1.352326 1.78836,-1.352326 z" />
    <path
       style="fill:#ff0000;stroke-width:0.149448"
       id="path62"
       d="m 112.40155,77.719023 c 0.3166,1.104064 0.52536,2.235446 0.74587,3.36158 0.20363,1.111087 0.51473,2.197738 0.74068,3.303988 0.12537,0.280083 0.0449,0.659727 0.21369,0.926264 0.033,0.05204 0.0835,0.147714 0.13929,0.121488 2.07878,-0.977877 1.74863,-0.516297 2.29754,-1.509231 0.5987,-1.106893 1.19383,-2.212685 1.69661,-3.366947 0.0703,-0.179392 0.14204,-0.358258 0.21103,-0.538176 0.0599,-0.156261 0.11682,-0.31366 0.17566,-0.470328 0.0476,-0.126697 0.0765,-0.262234 0.14361,-0.379763 0.0404,-0.07074 0.2425,-0.214527 0.1722,-0.17339 -1.86975,1.094012 -2.22003,0.584416 -1.64275,1.259131 0.42321,1.021755 0.49323,2.191384 0.63712,3.283287 0.13033,0.749352 0.16727,1.532668 0.38614,2.264682 1.14378,1.269272 1.99516,-0.802307 2.36198,-1.555904 0.036,-0.07402 0.37156,-0.742463 0.39029,-0.779818 0.53574,-1.035526 1.03192,-2.089767 1.49493,-3.159581 0.3079,-0.666928 0.54817,-1.361486 0.75545,-2.065301 0,0 -2.00837,0.95334 -2.00837,0.95334 v 0 c -0.1947,0.691862 -0.43842,1.368053 -0.73354,2.023874 -0.46392,1.070345 -0.96982,2.120838 -1.51368,3.153017 -0.18515,0.357543 -0.35779,0.727953 -0.55974,1.076564 -0.0366,0.06314 -0.18715,0.212816 -0.12074,0.182587 1.92404,-0.875806 1.88538,-1.710434 1.90004,-0.913771 -0.0925,-0.233745 -0.13406,-0.486621 -0.18231,-0.732316 -0.0955,-0.486312 -0.17107,-0.975955 -0.23355,-1.467595 -0.16084,-1.139459 -0.24064,-2.317996 -0.65934,-3.398006 -0.64826,-0.943051 -0.18019,-0.48314 -2.3209,0.758546 -0.0743,0.04313 -0.0927,0.145627 -0.12683,0.224503 -0.19231,0.444151 -0.29423,0.927705 -0.50923,1.363531 -0.50763,1.152263 -1.0946,2.267073 -1.74351,3.346308 -0.0745,0.09409 -0.33484,0.326718 -0.22339,0.282263 0.63185,-0.252022 1.21074,-0.620735 1.82174,-0.919787 0.0215,-0.01054 -0.0327,0.06955 -0.0494,0.0523 -0.0437,-0.04527 -0.052,-0.115038 -0.0695,-0.175482 -0.067,-0.231946 -0.0909,-0.47503 -0.16073,-0.706235 -0.24107,-1.099092 -0.55418,-2.181018 -0.76532,-3.286761 -0.22062,-1.138019 -0.44152,-2.276169 -0.69083,-3.408328 0,0 -1.97022,1.069464 -1.97022,1.069464 z" />
    <path
       style="fill:#ff0000;stroke-width:0.149448"
       id="path64"
       d="m 114.68652,75.683926 c 0.72466,0.147429 1.45508,0.263079 2.18537,0.378361 0.67911,0.110903 1.3584,0.220056 2.03341,0.353876 0.34855,0.07011 0.69837,0.133176 1.04581,0.208748 0.66856,-0.392266 1.38881,-0.707426 2.00569,-1.176798 0.0794,-0.06041 -0.0483,-0.193805 -0.0801,-0.288352 -0.16965,-0.504173 -0.42262,-0.972019 -0.68344,-1.433177 -0.14723,-0.25694 -0.32071,-0.496917 -0.48683,-0.741539 0,0 -1.9345,1.146771 -1.9345,1.146771 v 0 c 0.18141,0.223861 0.35331,0.455464 0.50379,0.701573 0.20158,0.343668 0.391,0.684534 0.52876,1.060051 0.0378,0.102947 0.0768,0.206421 0.0982,0.313987 0.009,0.04796 -0.0513,0.166839 -0.007,0.146508 0.65252,-0.298381 1.26649,-0.674708 1.89974,-1.012063 -0.35352,-0.07034 -0.7065,-0.143153 -1.06227,-0.201493 -0.68438,-0.127191 -1.37038,-0.239952 -2.05867,-0.344423 -0.71689,-0.117172 -1.43457,-0.234032 -2.14513,-0.385523 0,0 -1.84289,1.273493 -1.84289,1.273493 z" />
    <path
       style="fill:#ff0000;stroke-width:0.149448"
       id="path66"
       d="m 120.17147,75.89625 c -0.60765,0.652887 -1.20456,1.315622 -1.83233,1.949416 -0.0644,0.06141 -0.1288,0.122816 -0.1932,0.184223 0,0 2.0601,-0.851486 2.0601,-0.851486 v 0 c 0.0605,-0.06161 0.12101,-0.123231 0.18152,-0.184845 0.61873,-0.651376 1.21756,-1.321517 1.84873,-1.961087 0,0 -2.06482,0.863779 -2.06482,0.863779 z" />
    <path
       style="fill:#ff0000;stroke-width:0.149448"
       id="path68"
       d="m 124.61351,80.270783 c -0.44364,0.409714 -0.84004,0.861364 -1.14841,1.38089 -0.27212,0.527928 -0.4679,1.09341 -0.57775,1.67658 -0.11121,0.745664 -0.0269,1.500037 0.0603,2.243258 0.0976,0.697471 0.15509,1.40474 0.38291,2.074643 0.0223,0.06124 0.0446,0.122475 0.0669,0.183713 0,0 1.95699,-1.087031 1.95699,-1.087031 v 0 c -0.0226,-0.05888 -0.0452,-0.117749 -0.0678,-0.176623 -0.22709,-0.648619 -0.30267,-1.33608 -0.38941,-2.014625 -0.0719,-0.728571 -0.14053,-1.468484 -0.005,-2.194333 0.12547,-0.559006 0.3143,-1.107476 0.6077,-1.602077 0.33372,-0.496209 0.73375,-0.938766 1.18533,-1.331589 0,0 -2.07223,0.847194 -2.07223,0.847194 z" />
    <path
       style="fill:#ff0000;stroke-width:0.149448"
       id="path70"
       d="m 127.28202,81.964614 c -0.22171,0.586165 -0.38132,1.192829 -0.45099,1.81571 -0.0414,0.376627 0.18829,0.600755 0.46066,0.818187 0.37963,0.257764 0.78508,0.474022 1.17086,0.722469 0.42927,0.260239 0.66209,0.628715 0.78469,1.105341 0.0643,0.375886 0.0607,0.787919 -0.16809,1.10931 0.5906,-0.365945 1.18121,-0.731889 1.77182,-1.097833 -0.0631,0.01571 -0.12453,0.0425 -0.18943,0.04714 -0.23342,0.01666 -0.48244,-0.05596 -0.70777,-0.105818 0,0 -1.83622,1.271333 -1.83622,1.271333 v 0 c 1.50245,0.362291 0.97215,0.23932 3.01007,-1.036709 0.15577,-0.404197 0.17739,-0.828984 0.0783,-1.251916 -0.1484,-0.5197 -0.39682,-0.95156 -0.86662,-1.245198 -0.37716,-0.248987 -0.77176,-0.469507 -1.15082,-0.715585 -0.23135,-0.16785 -0.3992,-0.304957 -0.35407,-0.613738 0.0668,-0.605206 0.22706,-1.197268 0.48579,-1.749625 0,0 -2.03821,0.926933 -2.03821,0.926933 z" />
    <path
       style="fill:#ff0000;stroke-width:0.149448"
       id="path72"
       d="m 130.66263,79.605522 c 0.71561,0.469465 1.27447,1.117537 1.79878,1.783863 0.67672,0.89673 1.29238,1.837092 1.76799,2.855729 0.33424,0.758724 0.41843,1.581495 0.43968,2.400794 0.0345,0.580128 -0.15482,1.110191 -0.36481,1.639257 -0.0936,0.329521 -0.37737,0.477719 -0.64993,0.646342 0,0 2.07373,-0.815226 2.07373,-0.815226 v 0 c 0.27434,-0.209678 0.5078,-0.422504 0.59822,-0.770375 0.20258,-0.555279 0.36576,-1.114578 0.31402,-1.71411 -0.0439,-0.844387 -0.14188,-1.694288 -0.4933,-2.473623 -0.49706,-1.02498 -1.14191,-1.964258 -1.80452,-2.888659 -0.5235,-0.690983 -1.08712,-1.349832 -1.79021,-1.866935 0,0 -1.88965,1.202943 -1.88965,1.202943 z" />
    <path
       style="fill:#ff0000;stroke-width:0.180634"
       id="path74"
       d="m 96.951672,91.254236 c 4.067908,0.03098 8.136058,-0.01931 12.203668,-0.05017 4.34464,-0.05157 8.68907,0.0029 13.03356,0.02464 5.44081,0.002 10.87824,-0.14044 16.31589,-0.24792 3.90538,-0.06093 7.81125,-0.104934 11.71729,-0.140188 0,0 2.4361,-1.21638 2.4361,-1.21638 v 0 c -3.90064,0.06572 -7.80213,0.09059 -11.70346,0.130504 -5.46004,0.114411 -10.9164,0.387041 -16.38302,0.292634 -2.22077,-0.03408 -4.44479,-0.100178 -6.6664,-0.101049 -1.01589,-4.49e-4 -2.90208,0.03348 -3.86765,0.0457 -0.83578,0.01058 -1.67163,0.0188 -2.50743,0.0282 -3.97221,0.0303 -7.95135,0.08238 -11.919341,-0.07572 0,0 -2.659207,1.309745 -2.659207,1.309745 z" />
    <path
       style="fill:#ff0000;stroke-width:0.149448"
       id="path76"
       d="m 151.596,88.057809 c 0.54652,0.460252 1.0931,0.920169 1.65804,1.357771 0.0774,0.105391 0.39331,0.179914 0.37506,0.354807 -0.0257,0.246179 -0.35766,0.514393 -0.50413,0.671195 -0.10387,0.09565 -0.20626,0.192944 -0.3116,0.286958 -0.18179,0.162214 -0.37837,0.307538 -0.5575,0.472673 -0.30866,0.284543 -0.58181,0.615057 -0.87612,0.914339 -0.40263,0.403764 -0.83912,0.771241 -1.26863,1.14553 0,0 2.02943,-0.825218 2.02943,-0.825218 v 0 c 0.42936,-0.37973 0.86369,-0.754815 1.26732,-1.162376 0.57079,-0.580423 1.15855,-1.137207 1.75313,-1.692548 0.23264,-0.289276 0.6369,-0.728033 0.32257,-1.11512 -0.0888,-0.109399 -0.26505,-0.124646 -0.34808,-0.239949 -0.57207,-0.417111 -1.12259,-0.864672 -1.64061,-1.347541 0,0 -1.89888,1.179479 -1.89888,1.179479 z" />
    <path
       style="fill:#ff0000;stroke-width:0.149448"
       id="path78"
       d="m 50.251879,106.09018 c -0.554252,0.0909 -1.114898,0.15945 -1.661251,0.29243 -1.092812,0.55151 -2.159246,0.99612 -2.834098,2.00414 -0.146846,0.2153 -0.141899,0.40055 -0.01009,0.61717 0.123945,0.15575 0.289189,0.27022 0.433612,0.40605 0.12717,0.12594 0.266621,0.23686 0.409918,0.34352 0.130805,0.0986 0.278398,0.17109 0.419753,0.25292 0.159103,0.10337 0.326791,0.19196 0.499454,0.27018 0.145002,0.0516 0.287726,0.10955 0.432813,0.16087 0.198831,0.064 0.399025,0.12356 0.601783,0.17382 0.206329,0.0407 0.405178,0.1118 0.602967,0.18192 0.03735,0.014 0.0747,0.028 0.112045,0.0419 0,0 1.864384,-1.2567 1.864384,-1.2567 v 0 c -0.03762,-0.0136 -0.07524,-0.0271 -0.11286,-0.0407 -0.202436,-0.078 -0.407511,-0.15193 -0.615682,-0.21275 -0.199502,-0.0353 -0.394911,-0.0873 -0.586821,-0.15222 -0.143638,-0.0462 -0.282122,-0.10497 -0.425513,-0.15172 -0.167874,-0.0565 -0.327176,-0.13681 -0.476753,-0.23147 -0.130255,-0.0929 -0.27707,-0.15797 -0.412743,-0.24218 -0.137875,-0.1 -0.273954,-0.20203 -0.398506,-0.31861 -0.130538,-0.1226 -0.262326,-0.2423 -0.3994,-0.35703 -0.08504,-0.1353 0.04589,-0.26105 0.118311,-0.37592 0.614881,-0.78987 2.233021,-1.63227 -0.993521,0.26044 0.51415,-0.21123 1.095651,-0.22049 1.635714,-0.32957 0,0 1.796489,-1.33649 1.796489,-1.33649 z" />
    <path
       style="fill:#ff0000;stroke-width:0.149448"
       id="path80"
       d="m 52.556447,110.75547 c 0.592567,-0.39323 1.157067,-0.82719 1.695982,-1.29083 0.339874,-0.32712 0.669972,-0.66528 1.035488,-0.96424 0.721693,-0.38474 0.288557,-0.15518 -1.772615,1.0254 -0.01012,0.006 0.01774,-0.0286 0.02728,-0.0219 0.02555,0.018 0.03969,0.0492 0.0522,0.0779 0.05699,0.13045 0.07601,0.26608 0.10485,0.40458 0.08227,0.46125 0.08886,0.93103 0.059,1.39734 -0.0278,0.2858 -0.05045,0.57069 -0.03557,0.85761 0.01033,0.20885 0.0088,0.41833 0.04052,0.62542 0.07358,0.31253 0.07608,0.64026 0.07874,0.96018 0.0011,0.11091 -0.0038,0.21713 -0.04056,0.32154 0,0 2.027324,-0.98516 2.027324,-0.98516 v 0 c 0.0087,-0.11907 0.0114,-0.2382 0.006,-0.35762 -0.0126,-0.33007 -0.0166,-0.6639 -0.07719,-0.9893 -0.02329,-0.20027 -0.02728,-0.402 -0.03413,-0.60334 -0.005,-0.27892 0.01182,-0.55672 0.03242,-0.83488 0.01656,-0.48374 9.04e-4,-0.96865 -0.09065,-1.44542 -0.303568,-1.42665 -0.942879,-0.91099 -2.457677,0.41112 -0.345791,0.31334 -0.671553,0.64792 -1.020763,0.95757 -0.543391,0.46214 -1.119694,0.88326 -1.714694,1.27662 0,0 2.08407,-0.82254 2.08407,-0.82254 z" />
    <path
       style="fill:#ff0000;stroke-width:0.149448"
       id="path82"
       d="m 155.43923,86.182122 c 0.37444,1.504695 0.5381,3.04698 0.6541,4.589537 0.10176,1.255718 0.0547,2.519505 0.16955,3.773998 0.069,0.467464 0.11618,0.933927 0.1364,1.405949 0.0784,0.09536 0.12827,0.22422 0.23509,0.286074 0.71712,0.415323 2.42613,0.35026 3.17676,0.354083 0.8541,0.0044 2.61035,-0.02645 3.46605,-0.03936 3.12143,-0.07928 6.24362,-0.0027 9.36487,0.04466 0.98203,-2.98e-4 1.96346,0.05367 2.94545,0.05647 0.34357,0.0011 0.68824,0.01061 1.03054,-0.01895 0.25438,-0.02197 0.52509,-0.02194 0.75393,-0.135175 0.82809,-0.409755 1.64642,-0.858112 2.38236,-1.416712 0.18105,-0.137428 0.1963,-0.410048 0.29444,-0.615072 0.0487,-0.255678 0.11802,-0.508284 0.14622,-0.767032 0.16333,-1.498238 -0.14543,-3.247095 -0.36376,-4.73527 -0.2702,-1.605019 -0.42763,-3.223977 -0.56224,-4.844835 -0.0484,-0.264596 0.0246,-0.949755 -0.30366,-1.084537 -0.27559,-0.113158 -0.65094,-0.0236 -0.91495,0.005 -2.18405,0.386175 -4.37615,0.712793 -6.58035,0.959084 -1.27111,0.145011 -2.54992,0.159069 -3.82735,0.154987 -2.01227,0.01823 -4.01742,0.222607 -6.02375,0.361525 -1.21008,0.08322 -2.42261,0.115191 -3.63518,0.128256 0,0 -1.76158,1.285733 -1.76158,1.285733 v 0 c 1.23908,-0.0401 2.47789,-0.09154 3.71496,-0.174392 1.97168,-0.134183 3.94449,-0.315247 5.92225,-0.307388 1.30644,0.01417 2.61247,-0.04847 3.91218,-0.184988 2.18085,-0.253735 4.35327,-0.566252 6.52114,-0.913343 0.17153,-0.02287 0.34311,-0.04514 0.51454,-0.06859 0.0663,-0.0091 0.32532,-0.07126 0.36588,-0.01614 0.12198,0.165792 0.0908,0.693628 0.15444,0.86841 0.18802,1.611517 0.34638,3.227176 0.61576,4.828088 0.21202,1.440911 0.53155,3.234267 0.30398,4.67743 -0.0385,0.243924 -0.12361,0.478155 -0.18542,0.717234 -0.33091,0.51959 -1.20481,1.693895 1.03086,-0.163696 0.20082,-0.166856 -0.50168,0.153319 -0.76057,0.187221 -0.35029,0.04587 -0.7054,0.04425 -1.05862,0.05102 -0.55488,0.01061 -2.51302,-0.01899 -2.98691,-0.02495 -3.1217,-0.05884 -6.24549,-0.174578 -9.36717,-0.05118 -1.23738,0.01989 -2.19426,0.04554 -3.4308,0.02468 -0.47449,-0.008 -0.9492,-0.01964 -1.4228,-0.04972 -0.33164,-0.02106 -1.13835,-0.07609 -1.5275,-0.243214 -0.0681,-0.02924 -0.10457,-0.105045 -0.15685,-0.157568 -0.0257,-0.473881 -0.0609,-0.945671 -0.15058,-1.412581 -0.14653,-1.238226 -0.14953,-2.486982 -0.24127,-3.729569 -0.11907,-1.56307 -0.29162,-3.119504 -0.58346,-4.660912 0,0 -1.96698,1.055722 -1.96698,1.055722 z" />
    <path
       style="fill:#ff0000;stroke-width:0.149448"
       id="path84"
       d="m 167.53881,87.322001 c -0.55076,0.186216 -1.12148,0.318871 -1.66903,0.514481 -0.41796,0.149318 -0.57509,0.236628 -0.98416,0.429984 -1.12408,0.646938 -2.47992,1.058893 -3.37198,2.022468 -0.17478,0.188794 -0.21624,0.29605 -0.33743,0.517322 -0.17285,0.363 -0.32375,0.744813 -0.18711,1.140204 0.16027,0.319248 0.43185,0.560651 0.70617,0.781279 0.1687,0.130344 0.36481,0.214992 0.56041,0.295815 0.11976,0.05821 0.24854,0.07382 0.37778,0.09439 0.22368,0.0288 0.44803,0.05193 0.67225,0.07619 0.31661,0.02736 0.63359,0.05274 0.95084,0.07206 0.20229,0.01033 0.1043,0.0056 0.29396,0.01425 0,0 1.8216,-1.313753 1.8216,-1.313753 v 0 c -0.1904,-0.0047 -0.0923,-0.0018 -0.29422,-0.0088 -0.31439,-0.01481 -0.62773,-0.04313 -0.94166,-0.06466 -0.22092,-0.0225 -0.44122,-0.05023 -0.66172,-0.07563 -0.1171,-0.01263 -0.23494,-0.02424 -0.34945,-0.05273 -0.18389,-0.06104 -0.36474,-0.136574 -0.5313,-0.236017 -0.24867,-0.17812 -0.49706,-0.382883 -0.6325,-0.663338 -0.0867,-0.336089 0.10295,-0.669198 0.24977,-0.959863 0.14474,-0.214527 0.16487,-0.270862 0.35971,-0.449676 0.0806,-0.07398 0.35385,-0.254789 0.25651,-0.204813 -3.20999,1.648124 -1.31323,0.787688 -0.65297,0.380493 0.29065,-0.143774 0.64069,-0.326558 0.94719,-0.442949 0.53545,-0.203325 1.10344,-0.32338 1.64578,-0.506232 0,0 1.77156,-1.36048 1.77156,-1.36048 z" />
    <path
       style="fill:#ff0000;stroke-width:0.149448"
       id="path86"
       d="m 168.27655,92.655303 c 0.44368,-0.06636 0.91483,-0.08452 1.3443,0.06157 0.12142,0.07468 0.35072,0.269772 0.37635,0.422586 0.0127,0.07598 -0.0924,0.224709 -0.11518,0.26458 -0.38285,0.465061 -0.80134,0.916911 -1.31584,1.23549 -0.98072,0.550109 0.25232,-0.139213 1.18256,-0.695614 0.11911,-0.07124 -0.24457,0.131274 -0.36739,0.195915 -0.24097,0.126831 -0.48399,0.249636 -0.72459,0.377193 -0.66168,0.395137 -1.38462,0.702264 -1.98507,1.185409 -0.0834,0.06714 0.1158,0.196512 0.21371,0.239893 0.10427,0.0462 0.73604,-0.06754 0.76657,-0.07261 0.22171,-0.03682 0.8279,-0.150925 1.05324,-0.192932 0.61088,-0.112556 1.2182,-0.244078 1.83401,-0.327585 0.27193,-0.04689 0.54542,-0.03584 0.81906,-0.01761 0.15135,0.01039 0.3021,0.02692 0.45188,0.05074 0,0 1.84321,-1.291233 1.84321,-1.291233 v 0 c -0.15541,-0.02925 -0.31081,-0.0537 -0.46836,-0.06836 -0.28363,-0.01861 -0.5684,-0.05683 -0.85163,-0.01399 -0.63169,0.0839 -1.25367,0.218748 -1.87779,0.345704 -0.37974,0.07263 -0.6581,0.128005 -1.03965,0.192364 -0.14146,0.02387 -0.28363,0.0434 -0.42525,0.06641 -0.0856,0.0139 -0.19662,-0.01854 -0.25635,0.04433 -0.0462,0.04859 0.0164,0.133015 0.0247,0.199521 -0.61469,0.355026 -1.22938,0.710053 -1.84407,1.065079 0.3658,-0.210235 0.74978,-0.386071 1.11689,-0.593487 0.76026,-0.429556 1.51756,-0.86435 2.27401,-1.300588 0.11183,-0.06449 0.22046,-0.134356 0.33071,-0.201533 0.49818,-0.373829 0.95241,-0.827718 1.27333,-1.364357 0.0202,-0.07929 0.0546,-0.156262 0.0606,-0.237862 0.0228,-0.312501 -0.27464,-0.571715 -0.48753,-0.750916 -0.43945,-0.212498 -0.93903,-0.189639 -1.41766,-0.170038 0,0 -1.78872,1.351942 -1.78872,1.351942 z" />
    <path
       style="fill:#ff0000;stroke-width:0.149448"
       id="path88"
       d="m 178.71391,89.827904 c 2.04277,-0.272925 4.09867,-0.428336 6.15445,-0.562967 0.94953,-0.05419 1.89654,-0.141833 2.84409,-0.221886 0.60303,-0.05277 1.20739,-0.08351 1.81237,-0.101325 0.44982,-0.01331 0.89979,-0.02879 1.3489,-0.05833 0.66269,-0.39105 1.36882,-0.7164 1.98806,-1.173152 0.043,-0.03171 -0.12297,-0.27786 -0.2516,-0.440795 -0.25793,-0.326724 -0.55275,-0.626403 -0.8351,-0.931486 -0.56109,-0.59703 -1.14065,-1.176839 -1.73585,-1.73982 0,0 -1.88562,1.167287 -1.88562,1.167287 v 0 c 0.61084,0.538552 1.20171,1.101481 1.741,1.712549 0.15623,0.175165 0.4343,0.483423 0.59086,0.671313 0.069,0.0828 0.13653,0.16689 0.20086,0.253362 0.0405,0.05443 0.0815,0.109131 0.11334,0.169022 0.004,0.0078 -0.0182,0.02877 -0.0104,0.02452 0.63271,-0.345256 1.26009,-0.700168 1.89014,-1.050252 -0.44985,0.05314 -0.90351,0.07018 -1.3561,0.0795 -0.60733,0.02442 -1.21473,0.04687 -1.82102,0.09096 -0.96515,0.102741 -1.93102,0.199896 -2.8993,0.268861 -2.03857,0.163418 -4.07641,0.337263 -6.11278,0.526242 0,0 -1.7763,1.316408 -1.7763,1.316408 z" />
    <path
       style="fill:#ff0000;stroke-width:0.149448"
       id="path90"
       d="m 190.34267,88.34448 c -0.78368,0.901314 -1.51488,1.844785 -2.24321,2.790699 -0.31346,0.410416 -0.64527,0.806026 -0.98016,1.19893 0,0 2.03259,-0.863539 2.03259,-0.863539 v 0 c 0.32165,-0.394619 0.64069,-0.791336 0.95033,-1.195496 0.73653,-0.957305 1.48246,-1.907228 2.29199,-2.804713 0,0 -2.05154,0.874119 -2.05154,0.874119 z" />
    <path
       style="fill:#0000ff;stroke-width:0.149448"
       id="path96"
       d="m 48.887325,115.28914 c 0.614822,1.16963 0.61743,2.52865 0.639333,3.81698 -0.02802,1.57934 -0.107362,3.15544 -0.07716,4.73523 0.0305,1.0241 0.01559,2.04922 0.05542,3.073 0.01772,0.19008 0.02007,0.36979 -0.03651,0.55129 0,0 2.020424,-0.98355 2.020424,-0.98355 v 0 c 0.01627,-0.19556 0.01169,-0.38974 -0.01182,-0.58515 -0.06338,-1.01401 -0.0609,-2.03094 -0.09104,-3.0462 -0.02062,-1.57237 0.0034,-3.1434 0.04054,-4.71547 -0.0092,-1.34191 -0.01818,-2.73074 -0.604021,-3.9696 0,0 -1.935154,1.12347 -1.935154,1.12347 z" />
    <path
       style="fill:#0000ff;stroke-width:0.149448"
       id="path98"
       d="m 48.592402,116.24454 c -0.716622,0.73508 -1.434218,1.46898 -2.143591,2.2111 0,0 2.039116,-0.8513 2.039116,-0.8513 v 0 c 0.707006,-0.75585 1.432269,-1.49348 2.166985,-2.2224 0,0 -2.06251,0.8626 -2.06251,0.8626 z" />
    <path
       style="fill:#0000ff;stroke-width:0.149448"
       id="path100"
       d="m 50.072332,116.71256 c 0.905245,0.62607 1.701001,1.39373 2.496086,2.15076 0.09648,0.0891 0.192954,0.17828 0.289431,0.26742 0,0 1.879825,-1.16494 1.879825,-1.16494 v 0 c -0.09828,-0.087 -0.196558,-0.17405 -0.294837,-0.26108 -0.821712,-0.73984 -1.628416,-1.4979 -2.488474,-2.19364 0,0 -1.882031,1.20148 -1.882031,1.20148 z" />
    <text
       xml:space="preserve"
       style="font-style:normal;font-weight:normal;font-size:5.97793px;line-height:1.25;font-family:sans-serif;fill:#000000;fill-opacity:1;stroke:none;stroke-width:0.149448"
       x="31.997339"
       y="133.05208"
       id="text104"><tspan
         sodipodi:role="line"
         id="tspan102"
         x="31.997339"
         y="133.05208"
         style="stroke-width:0.149448">approximation</tspan><tspan
         sodipodi:role="line"
         x="31.997339"
         y="140.52449"
         style="stroke-width:0.149448"
         id="tspan106">parameter</tspan></text>
  </g>
</svg>
